<svg width="25" height="25" viewBox="0 0 25 25" fill="none" xmlns="http://www.w3.org/2000/svg">
<path d="M22.972 2.40332C22.6013 2.40546 22.2465 2.55431 21.9852 2.81732C21.9852 2.81732 16.117 8.67432 12.5532 12.2356L10.0417 9.72407C9.77892 9.4619 9.42285 9.31467 9.05162 9.31467C8.6804 9.31467 8.32432 9.4619 8.0615 9.72407C7.79933 9.98689 7.6521 10.343 7.6521 10.7142C7.6521 11.0854 7.79933 11.4415 8.0615 11.7043L11.5665 15.2093C11.8294 15.4714 12.1854 15.6186 12.5566 15.6186C12.9278 15.6186 13.2839 15.4714 13.5467 15.2093C16.8627 11.8951 23.9655 4.79757 23.9655 4.79757C24.2276 4.53476 24.3748 4.17874 24.3748 3.80757C24.3748 3.4364 24.2276 3.08038 23.9655 2.81757C23.8353 2.68649 23.6806 2.58241 23.5101 2.51132C23.3396 2.44023 23.1567 2.40353 22.972 2.40332Z" fill="#FF8C00"/>
<path d="M11.8433 1.28455C5.665 1.28455 0.625 6.3193 0.625 12.4976C0.625 18.6758 5.665 23.7158 11.8433 23.7158C16.9132 23.7158 21.364 20.2991 22.6763 15.4021C22.9292 14.4546 23.0568 13.4781 23.056 12.4976C23.056 12.126 22.9085 11.7697 22.646 11.5068C22.3834 11.2439 22.0273 11.096 21.6558 11.0956C21.2842 11.096 20.9281 11.2439 20.6655 11.5068C20.403 11.7697 20.2555 12.126 20.2555 12.4976C20.2555 13.2326 20.1555 13.9673 19.9653 14.6773C18.978 18.3613 15.6575 20.9151 11.8433 20.9151C7.18075 20.9151 3.4255 17.1601 3.4255 12.4976C3.4255 7.83505 7.1805 4.08505 11.843 4.08505C12.5785 4.08505 13.3073 4.18505 14.0175 4.37505C14.1953 4.42277 14.3808 4.43499 14.5634 4.41101C14.746 4.38703 14.922 4.32732 15.0815 4.2353C15.241 4.14327 15.3808 4.02073 15.4929 3.87467C15.6051 3.72862 15.6873 3.5619 15.735 3.38405L15.7353 3.3823C15.783 3.20446 15.7952 3.01896 15.7712 2.83639C15.7472 2.65382 15.6875 2.47777 15.5955 2.31828C15.5035 2.15879 15.3809 2.01899 15.2349 1.90687C15.0888 1.79474 14.9221 1.71249 14.7443 1.6648L14.7423 1.6643C13.7967 1.41144 12.822 1.28376 11.8433 1.28455Z" fill="#FF8C00"/>
</svg>
