<?xml version="1.0" encoding="utf-8"?>
<!-- Generator: Adobe Illustrator 27.5.0, SVG Export Plug-In . SVG Version: 6.00 Build 0)  -->
<svg version="1.1" xmlns="http://www.w3.org/2000/svg" xmlns:xlink="http://www.w3.org/1999/xlink" x="0px" y="0px"
	 viewBox="0 0 750 500" style="enable-background:new 0 0 750 500;" xml:space="preserve">
<g id="BACKGROUND">
	<rect style="fill:#F7F7F7;" width="750" height="500"/>
</g>
<g id="OBJECTS">
	<g>
		<path style="fill:#EBEBEB;" d="M83.791,455.055c0,0-66.46-82.607,13.992-158.692c80.451-76.085,13.992-205.43,124.175-234.777
			s98.815,104.346,217.743,88.042s205.501,12,209.873,96.215c4.372,84.215-21.862,141.823,34.104,209.212H83.791z"/>
		<rect x="58" y="455.055" style="fill:#070707;" width="634" height="3.667"/>
	</g>
	<g>
		<g>
			<g>
				<g>
					<path style="fill:#FC8D2A;" d="M164.663,374.072c0,0-13.469-4.255-25.442-10.587l-0.618-4.984l-3.908,2.424
						c-9.239-5.578-16.19-12.368-12.69-19.183c3.562-6.914,11.54-8.188,19.653-4.749l0.594,6.048l4.032-3.587
						C155.548,345.439,163.884,357.461,164.663,374.072z"/>
					<path style="fill:none;stroke:#080808;stroke-width:1.2368;stroke-miterlimit:10;" d="M124.582,343.036
						c0,0,35.147,3.814,44.732,44.629"/>
				</g>
				<g>
					<path style="fill:#FC8D2A;" d="M172.022,357.523c0,0-12.455-14.842-28.039-31.477l2.968-7.334c0,0-4.774,0.544-8.695,1.064
						c-13.58-16.363-6.803-27.841-3.884-31.057c2.585-2.845,15.93-10.414,29.585,2.981l-0.829,7.223h6.741
						c0.73,1.064,1.447,2.189,2.152,3.401C188.015,329.534,172.022,357.523,172.022,357.523z"/>
					<path style="fill:none;stroke:#080808;stroke-width:1.2368;stroke-miterlimit:10;" d="M137.775,288.718
						c0,0,30.715,24.015,33.188,54.317c2.474,30.302,2.544,51.741,2.544,51.741"/>
				</g>
				<g>
					<path style="fill:#FC8D2A;" d="M209.325,348.148l-4.564-0.779l1.237,3.599c-16.87,13.964-18.886,12.529-25.677,21.261
						c0,0-7.681-27.989,9.672-43.71l5.083,1.732l-0.668-5.108C215.967,311.266,227.148,332.143,209.325,348.148z"/>
					<path style="fill:none;stroke:#080808;stroke-width:1.2368;stroke-miterlimit:10;" d="M214.149,325.514
						c0,0-33.395,13.296-36.177,64.006"/>
				</g>
			</g>
			<g>
				<path style="fill:#070707;" d="M203.945,382.198h-61.013c0,0-2.696,23.314,2.672,42.77v26.864c0,2.585,1.509,4.972,3.846,6.073
					c1.2,0.569,2.325,0.853,3.364,0.853c1.014,0,1.942-0.272,2.746-0.804c2.313-1.534,3.661-5.207,4.032-10.971
					c3.76,2.424,8.324,3.847,13.84,3.859c6.407,0.012,11.54-1.818,15.646-4.898c0.272,6.357,1.645,10.377,4.081,12.01
					c0.816,0.532,1.744,0.804,2.746,0.804c1.051,0,2.177-0.284,3.377-0.853c2.325-1.101,3.834-3.488,3.834-6.073v-33.555h-0.037
					C206.258,400.553,203.945,382.198,203.945,382.198z M154.88,456.927c-1.274,0.841-2.931,0.804-4.898-0.136
					c-1.905-0.903-3.141-2.857-3.141-4.96v-22.894c2.436,7.013,6.11,13.234,11.564,17.217
					C158.071,453.192,156.389,455.926,154.88,456.927z M201.88,451.832c0,2.103-1.224,4.057-3.129,4.96
					c-1.979,0.94-3.624,0.977-4.91,0.136c-1.595-1.064-3.364-4.032-3.55-11.96c5.887-5.022,9.462-12.739,11.589-21.076V451.832z"/>
				<rect x="139.63" y="377.049" style="fill:#2A2832;" width="67.613" height="10.307"/>
			</g>
		</g>
		<g>
			<g>
				<g>
					<path style="fill:#60A2F4;" d="M672.54,388.58c0,0-4.387-5.203-14.034-11.835v-3.038l-2.131,1.485
						c-7.924-6.28-7.55-12.561,0.193-13.445c2.211-0.249,4.342,0.068,6.28,1.066l-0.182,2.959l3.163-0.726
						C669.604,368.935,672.211,376.405,672.54,388.58z"/>
					<path style="fill:#60A2F4;" d="M702.479,356.272c-0.896,1.27-2.279,2.698-3.945,4.217l-4.614-1.383l0.726,4.637
						c-8.332,6.552-19.43,13.241-19.43,13.241c-0.499-11.291,1.734-24.792,11.45-30.71l3.401,1.632l-1.054-2.857
						c0.703-0.306,1.451-0.578,2.222-0.816C704.837,340.118,707.819,348.767,702.479,356.272z"/>
					<path style="fill:#60A2F4;" d="M672.302,351.352c0,0-7.595-3.775-13.796-8.82v-3.696l-2.596,1.428
						c-3.945-3.775-6.541-7.992-4.637-11.767c2.154-4.262,6.995-4.591,11.54-1.87l0.193,3.571l2.675-1.394
						C670.42,333.225,673.991,341.149,672.302,351.352z"/>
					<path style="fill:#60A2F4;" d="M700.654,335.549l-4.602-1.383v3.151c-7.403,2.664-16.494,5.271-16.494,5.271
						c1.644-8.604,5.634-16.324,13.819-18.807l1.825,1.746l1.236-2.403c0.567-0.079,1.145-0.125,1.746-0.159
						C709.621,322.399,708.102,332.398,700.654,335.549z"/>
					<path style="fill:#60A2F4;" d="M676.134,332.772c0,0-7.799-8.672-16.982-17.821l1.281-4.682l-4.909,1.122
						c-0.091-0.091-0.193-0.181-0.283-0.272c-10.77-10.395-5.464-24.566,10.588-18.331c1.519,0.589,2.868,1.315,4.07,2.177
						l-0.578,3.968l3.968-0.85C680.94,307.254,678.923,323.317,676.134,332.772z"/>
					<path style="fill:#60A2F4;" d="M706.504,307.662c-0.805,1.734-2.188,3.412-3.911,4.977l-4.274,0.465l0.442,2.551
						c-7.096,4.909-16.064,8.23-16.064,8.23s0.181-13.093,8.956-21.46c0.125-0.125,0.25-0.238,0.374-0.34l3.548,1.19l-0.306-3.56
						C702.956,295.407,710.086,299.953,706.504,307.662z"/>
				</g>
				<g>
					<path style="fill:#070707;" d="M695.201,390.422h-43.928l7.085,45.168v16.757c0,0.059,0.012,1.454,1.089,2.453
						c0.691,0.642,1.64,0.966,2.824,0.966c0.169,0,0.343-0.007,0.522-0.02c3.604-0.268,3.477-7.348,3.376-13.037
						c-0.01-0.587-0.02-1.156-0.025-1.699h16.649c-0.005,0.543-0.015,1.112-0.025,1.699c-0.101,5.689-0.227,12.769,3.376,13.037
						c0.179,0.013,0.353,0.02,0.522,0.02c1.185,0,2.133-0.324,2.824-0.966c1.077-1,1.089-2.395,1.089-2.453v-16.079L695.201,390.422
						z M665.036,442.73c0.084,4.659,0.209,11.698-2.326,11.885c-1.09,0.082-1.931-0.133-2.481-0.638
						c-0.716-0.656-0.736-1.624-0.736-1.631v-11.336h5.518C665.016,441.561,665.025,442.136,665.036,442.73z M688.718,453.97
						c-0.549,0.51-1.389,0.724-2.49,0.645c-2.535-0.187-2.41-7.227-2.326-11.885c0.01-0.594,0.02-1.169,0.026-1.719h5.518v11.336
						C689.445,452.357,689.425,453.313,688.718,453.97z"/>
					<rect x="648.723" y="386.88" style="fill:#252728;" width="48.746" height="7.085"/>
				</g>
			</g>
			<g>
				<path style="fill:none;stroke:#252728;stroke-width:1.1336;stroke-miterlimit:10;" d="M705.121,302.424
					c0,0-30.324,12.47-31.883,56.681c-1.559,44.212,0,51.013,0,51.013"/>
				<path style="fill:none;stroke:#252728;stroke-width:1.1336;stroke-miterlimit:10;" d="M652.785,364.585
					c0,0,17.414,4.346,19.76,23.995"/>
				<path style="fill:none;stroke:#252728;stroke-width:1.1336;stroke-miterlimit:10;" d="M702.476,345.88
					c0,0-29.632,15.115-29.931,46.479"/>
				<path style="fill:none;stroke:#252728;stroke-width:1.1336;stroke-miterlimit:10;" d="M652.785,329.348
					c0,0,20.045,6.334,20.452,29.758"/>
				<path style="fill:none;stroke:#252728;stroke-width:1.1336;stroke-miterlimit:10;" d="M655.241,295.056
					c0,0,24.058,16.703,20.892,44.535"/>
				<path style="fill:none;stroke:#252728;stroke-width:1.1336;stroke-miterlimit:10;" d="M705.121,327.364
					c0,0-30.324,3.023-31.883,35.52"/>
			</g>
		</g>
	</g>
	<g>
		<rect x="442.824" y="236.128" style="fill:#37539A;" width="10.056" height="220.828"/>
		<g>
			<rect x="312.104" y="112.463" style="fill:#CEDBEA;" width="271.496" height="220.828"/>
			<path style="fill:#344B7E;" d="M585.489,115.468H310.772c-2.139,0-3.873-1.734-3.873-3.873l0,0c0-2.139,1.734-3.873,3.873-3.873
				h274.717c2.139,0,3.873,1.734,3.873,3.873l0,0C589.362,113.734,587.628,115.468,585.489,115.468z"/>
		</g>
		<g>
			<path style="fill:#93B1CE;" d="M556.902,260.211h-21.556c-2.705,0-4.897-2.193-4.897-4.897v-21.151
				c0-2.704,2.193-4.897,4.897-4.897h21.556c2.705,0,4.897,2.193,4.897,4.897v21.151
				C561.799,258.018,559.607,260.211,556.902,260.211z"/>
			<path style="fill:#FFFFFF;" d="M546.781,240.548l-0.969-0.17c-0.113-0.422-0.281-0.828-0.5-1.207l0.565-0.806
				c0.208-0.296,0.173-0.698-0.083-0.954l-0.58-0.58c-0.259-0.251-0.661-0.28-0.954-0.068l-0.805,0.565
				c-0.379-0.219-0.785-0.387-1.207-0.5l-0.167-0.991c-0.061-0.352-0.362-0.611-0.719-0.617h-0.837
				c-0.363-0.001-0.673,0.26-0.734,0.617l-0.17,0.966c-0.422,0.113-0.828,0.281-1.207,0.5l-0.802-0.54
				c-0.296-0.208-0.698-0.173-0.954,0.083l-0.58,0.58c-0.256,0.255-0.291,0.658-0.083,0.954l0.565,0.806
				c-0.219,0.379-0.387,0.785-0.5,1.207l-0.966,0.17c-0.357,0.062-0.618,0.372-0.617,0.735v0.821
				c-0.001,0.363,0.26,0.673,0.617,0.735l0.966,0.17c0.113,0.422,0.281,0.828,0.5,1.207l-0.565,0.806
				c-0.208,0.296-0.173,0.698,0.083,0.954l0.58,0.58c0.255,0.256,0.658,0.291,0.954,0.083l0.806-0.565
				c0.379,0.219,0.785,0.387,1.207,0.5l0.17,0.966c0.062,0.357,0.372,0.618,0.735,0.617h0.833c0.363,0.001,0.673-0.26,0.735-0.617
				l0.17-0.966c0.422-0.113,0.828-0.281,1.207-0.5l0.787,0.553c0.296,0.208,0.698,0.173,0.954-0.083l0.58-0.58
				c0.256-0.255,0.291-0.658,0.083-0.954l-0.565-0.812c0.219-0.379,0.387-0.784,0.5-1.207l0.969-0.17
				c0.357-0.062,0.618-0.372,0.617-0.735v-0.821C547.398,240.918,547.137,240.61,546.781,240.548z M540.935,243.906
				c-1.224,0-2.216-0.992-2.216-2.216c0-1.224,0.992-2.216,2.216-2.216c1.224,0,2.216,0.992,2.216,2.216c0,0.004,0,0.008,0,0.012
				C543.145,242.922,542.154,243.906,540.935,243.906z"/>
			<path style="fill:#FFFFFF;" d="M557.278,236.223l-0.778-0.136c-0.091-0.339-0.226-0.665-0.402-0.969l0.453-0.647
				c0.167-0.237,0.139-0.561-0.067-0.766l-0.466-0.466c-0.208-0.202-0.531-0.225-0.766-0.055l-0.647,0.453
				c-0.304-0.175-0.63-0.31-0.969-0.401l-0.134-0.795c-0.049-0.282-0.291-0.49-0.577-0.496h-0.672
				c-0.291-0.001-0.54,0.209-0.59,0.496l-0.136,0.776c-0.339,0.091-0.665,0.226-0.969,0.402l-0.644-0.434
				c-0.238-0.167-0.561-0.139-0.766,0.067l-0.466,0.466c-0.205,0.205-0.234,0.528-0.067,0.766l0.453,0.647
				c-0.175,0.304-0.31,0.63-0.401,0.969l-0.776,0.136c-0.287,0.049-0.496,0.299-0.496,0.59v0.659
				c-0.001,0.291,0.209,0.54,0.496,0.59l0.776,0.136c0.091,0.339,0.226,0.665,0.401,0.969l-0.453,0.647
				c-0.167,0.238-0.139,0.561,0.067,0.766l0.466,0.466c0.205,0.205,0.528,0.234,0.766,0.067l0.647-0.454
				c0.304,0.176,0.63,0.31,0.969,0.402l0.136,0.775c0.049,0.287,0.299,0.496,0.59,0.496h0.669c0.291,0.001,0.54-0.209,0.59-0.496
				l0.136-0.775c0.339-0.091,0.665-0.226,0.969-0.402l0.632,0.444c0.238,0.167,0.561,0.139,0.766-0.067l0.466-0.466
				c0.205-0.205,0.234-0.528,0.067-0.766l-0.453-0.652c0.176-0.304,0.31-0.63,0.402-0.969l0.778-0.136
				c0.287-0.049,0.496-0.299,0.496-0.59v-0.659C557.773,236.52,557.564,236.272,557.278,236.223z M552.585,238.919
				c-0.983,0-1.779-0.797-1.779-1.779c0-0.983,0.797-1.779,1.779-1.779c0.982,0,1.779,0.797,1.779,1.779c0,0.003,0,0.007,0,0.01
				C554.358,238.128,553.563,238.919,552.585,238.919z"/>
			<path style="fill:#FFFFFF;" d="M553.215,251.41l-0.778-0.136c-0.091-0.339-0.226-0.665-0.402-0.969l0.453-0.647
				c0.167-0.237,0.139-0.561-0.067-0.766l-0.466-0.466c-0.208-0.202-0.531-0.225-0.766-0.055l-0.647,0.453
				c-0.304-0.175-0.63-0.31-0.969-0.401l-0.134-0.795c-0.049-0.282-0.291-0.49-0.577-0.496h-0.672
				c-0.291-0.001-0.54,0.209-0.59,0.496l-0.136,0.776c-0.339,0.091-0.665,0.226-0.969,0.402l-0.644-0.434
				c-0.238-0.167-0.561-0.139-0.766,0.067l-0.466,0.466c-0.205,0.205-0.234,0.528-0.067,0.766l0.453,0.647
				c-0.175,0.304-0.31,0.63-0.401,0.969l-0.776,0.136c-0.287,0.049-0.496,0.299-0.496,0.59v0.659
				c-0.001,0.291,0.209,0.54,0.496,0.59l0.776,0.136c0.091,0.339,0.226,0.665,0.401,0.969l-0.453,0.647
				c-0.167,0.238-0.139,0.561,0.067,0.766l0.466,0.466c0.205,0.205,0.528,0.234,0.766,0.067l0.647-0.454
				c0.304,0.175,0.63,0.31,0.969,0.402l0.136,0.775c0.049,0.287,0.299,0.496,0.59,0.496h0.669c0.291,0.001,0.54-0.209,0.59-0.496
				l0.136-0.775c0.339-0.091,0.665-0.226,0.969-0.402l0.632,0.444c0.238,0.167,0.561,0.139,0.766-0.067l0.466-0.466
				c0.205-0.205,0.234-0.528,0.067-0.766l-0.453-0.652c0.176-0.304,0.31-0.63,0.402-0.969l0.778-0.136
				c0.287-0.049,0.496-0.299,0.496-0.59v-0.659C553.71,251.708,553.501,251.46,553.215,251.41z M548.522,254.106
				c-0.983,0-1.779-0.797-1.779-1.779c0-0.983,0.797-1.779,1.779-1.779c0.982,0,1.779,0.797,1.779,1.779c0,0.003,0,0.007,0,0.01
				C550.296,253.316,549.501,254.106,548.522,254.106z"/>
		</g>
		<g>
			<path style="fill:#93B1CE;" d="M556.902,217.544h-21.556c-2.705,0-4.897-2.192-4.897-4.897v-21.151
				c0-2.705,2.193-4.897,4.897-4.897h21.556c2.705,0,4.897,2.193,4.897,4.897v21.151
				C561.799,215.352,559.607,217.544,556.902,217.544z"/>
			<g>
				<g>
					<path style="fill:#F2F8FC;" d="M549.93,211.269c-0.01,0.37-0.32,0.68-0.7,0.68c-0.01,0-0.01,0-0.02,0h-0.09
						c-0.16,0.43-0.58,0.73-1.06,0.74c-0.07,0.79-0.74,1.39-1.55,1.37l-0.56-0.01c-0.81-0.02-1.46-0.66-1.49-1.45
						c-0.47-0.04-0.85-0.36-0.99-0.79h-0.13c-0.38-0.01-0.69-0.33-0.68-0.71s0.32-0.68,0.7-0.68c0.01,0,0.01,0,0.02,0h0.05
						l0.02-0.72h-0.06c-0.38-0.01-0.69-0.33-0.68-0.72c0.01-0.37,0.32-0.68,0.69-0.68c0.01,0,0.01,0,0.02,0h0.06l0.03-1.07
						l5.79,0.13l-0.03,1.08h0.02c0.39,0.01,0.69,0.33,0.68,0.71c0,0.38-0.31,0.68-0.69,0.68c-0.01,0-0.01,0-0.02,0h-0.02l-0.02,0.72
						h0.02C549.63,210.559,549.93,210.879,549.93,211.269z"/>
				</g>
				<g>
					<path style="fill:#C2DDEF;" d="M554.866,197.891c0.098-4.204-3.51-7.698-8.059-7.804c-4.549-0.106-8.315,3.217-8.413,7.421
						c-0.059,2.519,1.214,4.783,3.222,6.216l-0.001,0c0,0,0.944,0.548,1.017,1.977l-0.024,1.024
						c-0.011,0.481,0.401,0.88,0.921,0.892l5.746,0.133c0.52,0.012,0.951-0.368,0.962-0.848l0.024-1.033
						c0.142-1.418,1.09-1.914,1.09-1.914l-0.001,0C553.428,202.618,554.808,200.413,554.866,197.891z"/>
					<g>
						<path style="fill:none;stroke:#FFFFFF;stroke-width:0.2364;stroke-miterlimit:10;" d="M545.529,207.664l0.2-8.582
							c0.015-0.635-0.488-1.162-1.123-1.176l0,0c-0.635-0.015-1.162,0.488-1.176,1.123l-0.015,0.642
							c-0.015,0.635,0.488,1.162,1.123,1.176l1.985,0.051"/>
						<path style="fill:none;stroke:#FFFFFF;stroke-width:0.2364;stroke-miterlimit:10;" d="M547.219,207.704l0.199-8.582
							c0.015-0.635,0.541-1.138,1.176-1.123l0,0c0.635,0.015,1.138,0.541,1.123,1.176l-0.015,0.642
							c-0.015,0.635-0.541,1.138-1.176,1.123l-2.137-0.044"/>
					</g>
				</g>
			</g>
		</g>
		<g>
			<path style="fill:#93B1CE;" d="M556.902,174.878h-21.556c-2.705,0-4.897-2.193-4.897-4.897V148.83
				c0-2.704,2.193-4.897,4.897-4.897h21.556c2.705,0,4.897,2.193,4.897,4.897v21.151
				C561.799,172.685,559.607,174.878,556.902,174.878z"/>
			
				<ellipse transform="matrix(0.2309 -0.973 0.973 0.2309 264.9146 653.9582)" style="fill:#FFFFFF;" cx="546.124" cy="159.405" rx="11.842" ry="11.842"/>
			<circle style="fill:#93B1CE;" cx="546.124" cy="159.405" r="8.722"/>
			<circle style="fill:#FFFFFF;" cx="546.124" cy="159.405" r="6.387"/>
			<circle style="fill:#93B1CE;" cx="546.124" cy="159.405" r="4.175"/>
			<circle style="fill:#FFFFFF;" cx="546.124" cy="159.405" r="2.3"/>
		</g>
		<g>
			<rect x="363.314" y="264.472" style="fill:#93B1CE;" width="18" height="31.917"/>
			<rect x="404.66" y="234.091" style="fill:#93B1CE;" width="18" height="62.298"/>
			<rect x="446.005" y="204.388" style="fill:#93B1CE;" width="18" height="92"/>
			<rect x="487.351" y="178.388" style="fill:#93B1CE;" width="18" height="118"/>
			<polygon style="fill:#344B7E;" points="372.314,252.555 476.981,164.771 485.647,171.816 485.647,144.055 458.314,147.388 
				467.481,156.055 			"/>
			<polyline style="fill:none;stroke:#93B1CE;stroke-miterlimit:10;" points="337.123,147.055 337.123,296.388 530.981,296.388 			
				"/>
		</g>
	</g>
	<g>
		<g>
			<g>
				<polygon style="fill:#344B7E;" points="255.088,298.924 125.728,298.924 84.176,115.468 213.536,115.468 				"/>
				<rect x="88.524" y="441.612" style="fill:#344B7E;" width="176.4" height="13.328"/>
				<rect x="115.18" y="225.228" style="fill:#344B7E;" width="11.76" height="223.048"/>
				<rect x="231.996" y="236.055" style="fill:#344B7E;" width="11.76" height="212.221"/>
				<rect x="121.06" y="298.924" style="fill:#344B7E;" width="143.341" height="10.453"/>
				<rect x="98.324" y="245.22" style="fill:#344B7E;" width="53.312" height="9.408"/>
				<polygon style="fill:#344B7E;" points="109.954,102.663 121.06,102.663 128.77,122.263 117.794,122.263 				"/>
				<polygon style="fill:#344B7E;" points="175.026,102.663 186.132,102.663 193.842,122.263 182.866,122.263 				"/>
			</g>
			<polygon style="fill:#FFFFFF;" points="259.436,298.924 130.076,298.924 88.524,115.468 217.884,115.468 			"/>
			<path style="fill:#FAFBFC;" d="M259.44,298.925H130.08l-3.38-14.94c5.96-20.01,29.62-29.95,67.14-33.6
				c29.56-2.87,39.02-31.89,41.46-58.02L259.44,298.925z"/>
		</g>
		<g>
			<g>
				
					<ellipse transform="matrix(0.9379 -0.347 0.347 0.9379 -62.8753 72.856)" style="fill:#CE6363;" cx="172.01" cy="212.005" rx="46.878" ry="54.241"/>
				
					<ellipse transform="matrix(0.9379 -0.347 0.347 0.9379 -61.5055 73.5051)" style="fill:#F99595;" cx="174.508" cy="208.505" rx="46.878" ry="54.241"/>
				
					<ellipse transform="matrix(0.9379 -0.347 0.347 0.9379 -61.506 73.5059)" style="fill:#FFFFFF;" cx="174.508" cy="208.505" rx="34.529" ry="39.952"/>
				
					<ellipse transform="matrix(0.9379 -0.347 0.347 0.9379 -61.5082 73.5097)" style="fill:#F99595;" cx="174.508" cy="208.505" rx="22.765" ry="26.34"/>
				
					<ellipse transform="matrix(0.9379 -0.347 0.347 0.9379 -61.5065 73.5067)" style="fill:#FFFFFF;" cx="174.508" cy="208.505" rx="14.761" ry="17.079"/>
				<path style="fill:#F99595;" d="M180.194,206.401c1.344,3.634-0.112,7.521-3.252,8.683c-3.14,1.162-6.776-0.842-8.12-4.475
					s0.112-7.521,3.252-8.683S178.85,202.767,180.194,206.401z"/>
			</g>
			<g>
				
					<line style="fill:none;stroke:#344B7E;stroke-width:2;stroke-linecap:round;stroke-miterlimit:10;" x1="173.98" y1="208.587" x2="234.36" y2="175.259"/>
				<polyline style="fill:none;stroke:#344B7E;stroke-width:2;stroke-linecap:round;stroke-miterlimit:10;" points="225.36,173.722 
					225.36,180.227 230.86,183.555 				"/>
				<polyline style="fill:none;stroke:#344B7E;stroke-width:2;stroke-linecap:round;stroke-miterlimit:10;" points="231.61,170.342 
					231.61,176.847 237.11,180.175 				"/>
				<path style="fill:#344B7E;" d="M176.61,201.117c-0.207,0.62-4.6,8.456-4.6,8.456l9.35,0.481L176.61,201.117z"/>
			</g>
		</g>
	</g>
	<g>
		<g>
			<g>
				<g>
					<polygon style="fill:#BC610F;" points="303.566,226.927 300.293,223.177 301.314,203.301 304.891,204.523 306.316,219.235 
											"/>
				</g>
				<g>
					<path style="fill:#F0BF9C;" d="M265.911,200.811l35.177,22.043c3.971,2.488,9.225,0.897,11.148-3.376l0,0
						c1.806-4.012-0.099-8.72-4.186-10.348l-38.59-15.373l-1.697-3.358c-1.018-2.015-2.47-3.779-4.252-5.165l-4.398-3.423l0,0
						c-0.975,1.378-0.741,3.273,0.54,4.373l0.367,0.315l-4.079-1.754c-1.734-0.745-3.577-1.204-5.457-1.359l0,0
						c-2.618-0.215-5.054,1.359-5.932,3.835l0,0c-1.108,3.123,0.625,6.537,3.8,7.486l2.803,0.837l4.887,2.841
						C259.031,200.122,262.457,200.964,265.911,200.811L265.911,200.811z"/>
					<path style="fill:#EBA588;" d="M260.02,186.497L260.02,186.497c-0.664,3.744,0.772,7.551,3.743,9.924l1.162,0.928l-1.151-0.41
						C259.509,195.421,257.698,190.383,260.02,186.497L260.02,186.497z"/>
				</g>
				<polygon style="fill:#BC825B;" points="301.393,224.105 306.316,227.443 304.693,207.412 300.956,205.965 				"/>
				<g>
					<g>
						<path style="fill:#FF901B;" d="M301.314,203.953v-0.652c0,0,28.188,9.803,31.384,8.956l18.075-4.795l11.392-1.077l18.3,4.319
							c4.859,1.147,8.81,4.669,10.505,9.365l10.059,27.873l-16.777,4.002l3.079,40.787h-56.948l2.001-39.402l-2.616-14.16
							l-26.2-12.241l0.056-3.573C303.729,216.598,305.72,209.074,301.314,203.953z"/>
						<path style="fill:#DD700E;" d="M329.766,239.168l-2.77-15.814l-0.518,3.496c-0.569,3.839-0.152,7.76,1.211,11.395l0,0
							L329.766,239.168z"/>
					</g>
					<path style="fill:#DD700E;" d="M384.251,251.943l-3.463,0.731l-5.079-24.011l4.964-12.698l0,0
						c-3.568,2.767-5.656,7.029-5.656,11.545v1.139l0,0c-1.694,3.422-2.175,7.318-1.363,11.05l3.702,17.03
						c0.282,1.297,0.931,2.485,1.869,3.423l0,0c1.159,1.159,1.869,2.691,2.004,4.325l2.091,28.253h4.011L384.251,251.943z"/>
				</g>
			</g>
			<g>
				<g>
					<path style="fill:#F0BF9C;" d="M386.271,441.007c-0.973-0.973-2.293-1.52-3.669-1.52h-5.961
						c1.164-2.297,1.475-4.968,0.814-7.517l-0.336-1.294h14.279l1.982,11.851h-3.44C388.565,442.526,387.245,441.98,386.271,441.007
						z"/>
					<path style="fill:#070707;" d="M365.008,448.937l3.399-1.332c1.611-0.632,3.045-1.645,4.179-2.953l2.598-2.997
						c0.579-0.668,1.065-1.397,1.456-2.168h5.961c1.376,0,2.696,0.547,3.669,1.52c0.973,0.973,2.293,1.52,3.669,1.52h3.44
						l1.764,10.543h-35.194C361.148,451.227,362.899,449.764,365.008,448.937z"/>
					<path style="fill:#FFFFFF;" d="M395.145,453.069l0.65,3.886h-37.401c0.259-1.408,0.799-2.722,1.557-3.886H395.145z"/>
				</g>
				<g>
					<path style="fill:#F0BF9C;" d="M347.139,441.007c-0.973-0.973-2.293-1.52-3.669-1.52h-5.194
						c1.225-1.897,1.835-4.141,1.701-6.421l-0.141-2.391h14.233l-0.292,6.426l0.925,5.426h-3.893
						C349.432,442.526,348.112,441.98,347.139,441.007z"/>
					<path style="fill:#070707;" d="M326.376,448.937l3.399-1.332c1.611-0.632,3.046-1.645,4.179-2.953l3.428-3.956
						c0.331-0.382,0.621-0.79,0.893-1.21h5.194c1.376,0,2.696,0.547,3.669,1.52c0.973,0.973,2.293,1.52,3.669,1.52h3.893
						l1.798,10.543h-35.181C322.516,451.227,324.266,449.764,326.376,448.937z"/>
					<path style="fill:#FFFFFF;" d="M356.5,453.069l0.663,3.886h-37.401c0.259-1.408,0.8-2.722,1.557-3.886H356.5z"/>
				</g>
				<g>
					<path style="fill:#60A2F4;" d="M387.33,292.73l0.291,1.272c2.118,9.276,3.104,18.775,2.934,28.288l-0.685,38.47l4.724,75.062
						H375.56l-15.165-70.137l-3.232,70.137h-19.669l-5.727-74.754l-2.849-39.152c-0.625-8.592-0.305-17.227,0.956-25.75l0.508-3.436
						H387.33z"/>
					<polygon style="fill:#2D7FC9;" points="360.395,365.685 356.761,311.507 341.54,307.967 354.392,314.278 353.315,350.217 
						357.624,365.069 354.7,378.46 357.624,384.616 355.162,391.081 357.163,435.822 					"/>
					<path style="fill:#2D7FC9;" d="M352.045,292.73l-0.875,8.346c-0.134,1.275-0.037,2.563,0.284,3.804l1.488,5.739l-2.826-1.483
						c-1.427-0.749-2.501-2.029-2.991-3.564l-0.665-2.082c-0.199-0.623-0.251-1.284-0.152-1.93l1.35-8.829H352.045z"/>
				</g>
			</g>
			<g>
				<g>
					<path style="fill:#F0BF9C;" d="M359.591,202.359c1.366-1.424,2.305-3.214,2.961-5.075c0.122-0.346,0.227-0.697,0.332-1.048
						l0.974-0.164l1.616,13.929l-2.543,1.595c-4.216,2.644-9.578,2.622-13.772-0.056l0,0l-0.679-6.627
						c1.077,0.397,2.214,0.629,3.361,0.653C354.718,205.627,357.599,204.434,359.591,202.359z"/>
					<path style="fill:#422C4F;" d="M362.884,196.236c-0.105,0.351-0.21,0.702-0.332,1.048c-0.657,1.861-1.595,3.65-2.961,5.075
						c-1.992,2.076-4.873,3.269-7.749,3.208c-1.148-0.024-2.285-0.256-3.361-0.653l-0.63-6.148L362.884,196.236z"/>
				</g>
				<g>
					<path style="fill:#F0BF9C;" d="M352.853,201.767L352.853,201.767c8.671,0,15.699-7.029,15.699-15.699v-10.177
						c0-8.67-7.029-15.699-15.699-15.699l0,0c-8.67,0-15.699,7.029-15.699,15.699v10.177
						C337.154,194.738,344.183,201.767,352.853,201.767z"/>
					<path style="fill:#070707;" d="M347.267,155.106c3.572-2.458,8.083-3.512,12.374-2.893c4.291,0.619,8.32,2.906,11.051,6.273
						c3.126,3.854,4.475,8.906,4.679,13.864c0.204,4.958-0.119,10.089-0.97,14.978h-5.779c-2.654-0.842-4.457-3.306-4.457-6.09
						v-6.486c-11.766,0-13.773-3.276-18.01-8.397c-6.713,0-9.002,6.63-9.002,12.556v7.157c0,0-5.064-14.52-5.157-18.299
						c-0.092-3.779,1.228-7.654,3.925-10.302C338.619,154.819,343.648,154.018,347.267,155.106z"/>
					<g>
						<path style="fill:#F0BF9C;" d="M366.245,187.328c0,3.209,2.601,5.81,5.81,5.81c3.209,0,5.81-2.601,5.81-5.81
							c0-3.209-2.601-5.81-5.81-5.81C368.846,181.518,366.245,184.119,366.245,187.328z"/>
						<path style="fill:#EBA588;" d="M368.622,187.328c0,1.895,1.536,3.432,3.432,3.432c1.895,0,3.432-1.536,3.432-3.432
							c0-1.896-1.537-3.432-3.432-3.432C370.159,183.896,368.622,185.432,368.622,187.328z"/>
					</g>
				</g>
			</g>
			<path style="fill:#F0BF9C;" d="M397.668,248.752l-15.054,3.701l3.661,20.13l-4.489,37.444l-5.502,6.949
				c-0.911,1.151-1.198,2.707-0.759,4.128l3.203,10.389l0.843,0.157c3.73,0.694,6.99-2.684,6.347-6.578l0,0
				c4.504-5.999,4.381-12.473,4.381-12.473l10.616-35.876c0.929-3.138,1.077-6.471,0.43-9.686L397.668,248.752z"/>
			<polygon style="fill:#BC825B;" points="397.629,248.752 382.76,252.258 383.783,257.649 397.948,250.274 			"/>
			<g>
				<g>
					<path style="fill:#7C4756;" d="M353.285,175.883c1.9,0,3.583,0.909,4.652,2.313h-9.304
						C349.702,176.792,351.385,175.883,353.285,175.883z"/>
				</g>
				<path style="fill:#422C4F;" d="M351.98,181.809c0,0.721,0.584,1.305,1.305,1.305c0.72,0,1.305-0.584,1.305-1.305
					c0-0.721-0.584-1.305-1.305-1.305C352.564,180.504,351.98,181.088,351.98,181.809z"/>
				<g>
					<path style="fill:#7C4756;" d="M339.954,175.883c-1.577,0-2.975,0.909-3.862,2.313h7.724
						C342.929,176.792,341.532,175.883,339.954,175.883z"/>
				</g>
				<path style="fill:#422C4F;" d="M341.038,181.809c0,0.721-0.485,1.305-1.083,1.305c-0.598,0-1.083-0.584-1.083-1.305
					c0-0.721,0.485-1.305,1.083-1.305C340.553,180.504,341.038,181.088,341.038,181.809z"/>
				<path style="fill:#EBA588;" d="M345.266,188.396h4.843c-0.421,0.818-1.374,1.428-2.291,1.49
					C346.9,189.947,345.792,189.15,345.266,188.396z"/>
				<path style="fill:#FFFFFF;" d="M342.89,191.865c3.773,0.752,7.653,0.967,11.487,0.637c-1.065,2.128-3.415,3.704-5.793,3.63
					C346.205,196.059,343.82,194.055,342.89,191.865z"/>
			</g>
		</g>
		<g>
			<polygon style="fill:#37539A;" points="508.484,327.499 515.778,327.499 490.143,454.924 482.849,454.924 			"/>
			<g>
				<g>
					<g>
						<polygon style="fill:#F99D87;" points="505.588,432.077 501.399,448.81 487.247,448.81 490.786,432.077 						"/>
						<g>
							<path style="fill:#070707;" d="M476.438,448.607l3.267-1.28c1.548-0.607,2.927-1.58,4.016-2.837l2.496-2.88
								c0.556-0.642,1.024-1.343,1.4-2.084h5.729c1.323,0,2.591,0.525,3.526,1.461c0.935,0.935,2.204,1.461,3.526,1.461h3.306
								l1.695,10.132h-33.821C472.729,450.807,474.41,449.401,476.438,448.607z"/>
							<path style="fill:#FFFFFF;" d="M505.399,452.578l0.625,3.735h-35.942c0.249-1.353,0.768-2.616,1.496-3.735H505.399z"/>
						</g>
					</g>
					<g>
						<polygon style="fill:#F99D87;" points="514.276,432.077 517.172,452.671 531.652,452.671 531.07,432.077 						"/>
						<g>
							<path style="fill:#070707;" d="M504.163,448.607l3.267-1.28c1.549-0.607,2.927-1.58,4.016-2.837l2.496-2.88
								c0.556-0.642,1.024-1.343,1.399-2.084h5.729c1.323,0,2.591,0.525,3.526,1.461c0.935,0.935,2.204,1.461,3.526,1.461h3.306
								l1.695,10.132h-33.821C500.454,450.807,502.136,449.401,504.163,448.607z"/>
							<path style="fill:#FFFFFF;" d="M533.124,452.578l0.625,3.735h-35.942c0.249-1.353,0.768-2.616,1.496-3.735H533.124z"/>
						</g>
					</g>
					<path style="fill:#E36B85;" d="M503.431,362.556c0,0-20.311,74.167-17.068,74.901s20.405-2.27,20.405-2.27l12.442-50.627
						L503.431,362.556z"/>
					<path style="fill:#E68799;" d="M531.223,435.188l-2.574-52.345c0,0,54.917,12.873,84.521,3.005
						c29.604-9.868,16.303-43.762,16.303-43.762l-100.824,6.436c0,0-32.178-3.436-26.6,34.321c5.578,37.757,9.01,52.345,9.01,52.345
						H531.223z"/>
				</g>
				<path style="fill:#252728;" d="M621.75,393.937c7.038-3.302,17.41-11.447,21.881-31.364
					c7.079-31.534,3.218-52.128-15.767-51.806c-18.985,0.322-6.757,34.323-18.234,52.772c-11.477,18.449-38.292,0.429-39.793,16.303
					c-1.146,12.114,7.446,15.23,11.584,16.029v3.278h3.879l-23.078,55.775h7.375l11.006-26.601h42.342l11.006,26.601h7.375
					l-23.078-55.775h3.503V393.937z M620.37,422.102h-37.194l9.497-22.954h18.199L620.37,422.102z"/>
				<polygon style="fill:#37539A;" points="555.786,327.499 548.492,327.499 574.127,454.924 581.421,454.924 				"/>
				<g>
					<path style="fill:#DD9A05;" d="M630.869,355.015c0.238,3.743-2.208,8.05-4.315,10.618c-7.631-3.265-13.958-8.777-22.158-10.96
						c-9.548-2.541-19.586-2.541-29.352-3.54c-6.754-0.724,0.267-11.924,1.847-15.029c2.74-5.385,4.862-13.084,4.333-19.134
						c9.84,5.429,23.47,10.706,29.548,20.406c2.192,3.499,4.615,8.368,8.427,10.412c3.432,1.84,7.869,0.267,10.488,3.842
						C630.432,352.648,630.792,353.802,630.869,355.015z"/>
					<g>
						<path style="fill:#E9B98A;" d="M526.314,279.034c0,0-8.834-9.906-5.256-11.622c3.578-1.716,7.401-2.125,8.044-1.839
							c0.644,0.286-3.432-9.971-1.073-10.161c2.36-0.19,5.929,11.893,6.182,18.937S526.314,279.034,526.314,279.034z"/>
						<path style="fill:#4498E2;" d="M522.522,276.878l13.11-2.835l9.213,27.283c0,0,30.094-39.356,42.496-40.065l-7.417,31.915
							c0,0-26.929,27.638-30.826,28.346c-3.898,0.709-14.173,2.126-18.071-1.772C527.128,315.854,522.522,276.878,522.522,276.878z"
							/>
						<path style="fill:#1F2326;" d="M609.549,224.342c4.596,11.048,9.163,22.109,13.7,33.182c0.968,2.362,3.396,6.038,3.503,8.561
							c0.083,1.979-1.649,2.636-3.578,3.394c-4.037,1.586-8.471,1.637-12.699,2.35c-4.956,0.836-9.952,1.956-14.946,2.52
							c-6.115,0.691-11.175-4.257-12.913-9.831c-1.542-4.948-1.047-10.271-0.537-15.43c0.514-5.191,1-10.386,1.385-15.589
							c0.23-3.118,0.47-6.249,0.504-9.376c0.033-3.079-3.034-5.688-0.38-8.624c1.578-1.746,4.021-2.36,6.314-2.889
							c3.171-0.731,6.52-1.458,9.632-0.505C604.751,213.702,607.453,219.304,609.549,224.342z"/>
						<path style="fill:#2D7FC9;" d="M570.294,300.055c-0.297-11.781,7.381-22.217,9.816-33.748
							c-0.84,13.775-0.921,27.596-0.24,41.38c0.208,4.208-2.259,9.195-5.993,4.794C571.301,309.445,570.39,303.88,570.294,300.055z"
							/>
						<path style="fill:#F4B516;" d="M629.522,338.853c0.286,5.011,0.434,10.03,0.405,15.05c-0.043,7.576-6.365,8.954-12.531,5.381
							c-6.386-3.7-13.055-7.322-20.536-8.037c-10.776-1.031-11.483-3.686-11.396-15.353c0.086-11.406-5.063-21.761-8.185-32.486
							c-1.459-5.011-3.129-11.05-2.78-16.317c0.38-5.728,3.725-11.777,5.87-17.146c4.498-11.252,20.115-10.665,29.958-9.32
							c5.52,0.754,11.7,1.087,15.144,5.698c4.672,6.256,5.203,15.128,3.488,22.474c-2.156,9.237-6.135,18.519-4.46,27.855
							c1.087,6.056,4.18,10.525,4.655,16.729C629.295,335.204,629.418,337.028,629.522,338.853z"/>
						<path style="fill:#4498E2;" d="M597.251,262.241c-0.14,0.9-7.774,3.014-8.608,5.629c-0.834,2.615-6.48,19.751-6.48,19.751
							l3.106,35.303l-4.859,30.112l-12.022-3.234l8.084-35.596l-2.844-29.445l8.708-21.201c0,0,4.887-3.44,13.014-3.643
							C603.476,259.714,597.251,262.241,597.251,262.241z"/>
						<path style="fill:#60A2F4;" d="M607.948,258.892c0,0-10.682,19.426-10.271,31.666c0.582,17.297-3.394,36.373,1.711,53.666
							c1.964,6.653,6.852,11.092,11.914,15.485c2.255,1.956,6.003,4.332,7.348,7.068c1.551,3.153-0.223,6.648,2.742,9.719
							c1.978,2.05,4.85,3.045,7.688,3.288c2.838,0.243,5.685-0.194,8.5-0.63c-4.469,0.692-5.194-30.534-5.549-33.673
							c-1.773-15.655-3.617-31.372-5.802-46.917c-0.453-3.222-0.524-34.965-2.39-35.46L607.948,258.892z"/>
						<path style="fill:#5397E0;" d="M622.344,281.259c-2.493,10.19-5.016,20.416-8.73,30.244
							c-1.884,4.985-4.065,9.866-6.698,14.503c-2.011,3.54-3.223,7.533-5.186,10.889c-0.104,0.177-4.654-11.498-4.864-13.156
							c-0.777-6.119,1.929-7.994,5.64-12.679C609.924,301.695,616.568,291.717,622.344,281.259z"/>
						<path style="fill:#5397E0;" d="M599.393,344.22c-0.077,0.253,4.283,7.254,4.618,7.805c2.109,3.468,4.712,6.636,7.71,9.372
							c0.326,0.297,8.71-14.135,9.354-15.501c2.83-6.005,4.731-12.221,6.399-18.626c2.015-7.736,0.61-14.789-0.406-22.613
							C627.069,304.656,599.82,343.607,599.393,344.22z"/>
						<path style="fill:#E9B98A;" d="M611.193,258.302c-0.83,3.597-4.162,5.813-7.479,6.884c-2.094,0.688-9.238,2.239-10.854,0.536
							c-1.113-1.16-0.38-3.051,0.208-4.555c0.534-1.368,0.854-2.751,0.995-4.134c0.457-4.315-0.873-8.54-3.298-12.213
							c0.015-0.018,0.015-0.018-0.001-0.016c-0.36-0.573-0.748-1.094-1.153-1.63c-0.016,0.001-0.018-0.015-0.018-0.015l0.724-0.487
							c0.249-0.136,0.502-0.24,0.77-0.344c1.719-0.688,3.629-0.675,5.468-1.112c3.263-0.757,6.507-2.116,9.698-3.324
							c0.584-0.23,1.153-0.443,1.722-0.656C603.813,238.741,611.882,255.338,611.193,258.302z"/>
						<path style="fill:#CA876F;" d="M607.383,238.929c-1.952,10.206-9.505,16.999-12.19,19.142
							c0.457-4.315-0.873-8.541-3.298-12.214c0.015-0.018,0.015-0.018-0.001-0.016c-0.584-1.271-1.034-1.575-1.153-1.63
							c-0.016,0.001-0.018-0.015-0.018-0.015l0.724-0.487c0.25-0.136,0.501-0.24,0.77-0.344c1.719-0.688,3.629-0.675,5.468-1.112
							C600.948,241.496,604.191,240.137,607.383,238.929z"/>
						<path style="fill:#E9B98A;" d="M611.296,215.267c3.535,5.027,2.922,9.896,2.356,15.583c-0.357,3.592-2.955,10.514-8.008,8.936
							c-0.122,0.297-0.166,0.591-0.25,0.901c-2.039,7.523-13.401,16.336-20.591,9.761c-5.566-5.09-7.199-14.836-7.144-22.011
							c0.005-0.615,0.028-1.196,0.07-1.734c0.269-3.492,0.396-7.793,1.655-11.092c0.844-2.211,2.758-3.633,4.818-4.866
							C592.522,205.767,605.468,206.979,611.296,215.267z"/>
						<path style="fill:#1F2326;" d="M616.705,261.791c-3.04-0.526-4.449-2.127-6.325-4.548c-3.697-4.718-4.396-9.843-4.826-15.525
							c-0.411-5.47,2.069-11.197,0.541-16.545c-0.398-1.384-0.882-2.588-0.988-4.005c-0.011-0.262-0.007-0.527-0.004-0.807
							c-0.005,0.265-0.026,0.532-0.03,0.796c-0.112,3.053-0.208,6.102-0.323,9.139c-2.025-0.961-4.025-1.283-6.114-2.036
							c-3.068-1.082-2.267-0.145-2.954-3.244c-0.299-1.384-0.243-3.009-0.15-4.608c0.052-1.064,0.138-2.117,0.128-3.055
							c-0.177,1.003-0.357,1.989-0.534,2.992c-0.389,2.192-0.791,4.404-1.18,6.596c-2.355-0.378-4.695-0.758-7.034-1.139
							c-0.085-2.558-0.167-5.099-0.252-7.657c-0.04-1.213-0.082-2.443-0.122-3.656c-0.292,1.104-0.568,2.206-0.86,3.31
							c-0.618,2.396-1.255,4.779-1.874,7.175c-3.229-0.28-6.458-0.56-9.688-0.84c-0.611-3.821,0.055-7.791,1.73-11.256
							c0.245-0.503,0.506-1.009,0.788-1.485c2.169-3.663,4.351-4.41,7.353-5.872c0.579-0.279,1.17-0.593,1.818-0.95
							c3.105-1.727,5.553-3.244,9.056-3.884c5.584-1.007,14.872,0.296,15.353,7.551c0.662-0.178,1.344-0.243,2.015-0.175
							c0.938,0.089,1.867,0.411,2.707,0.896c0.712,0.408,1.346,0.944,1.879,1.563c1.953,2.292,2.322,5.461,2.616,8.478
							c0.082,0.976,0.161,1.935,0.297,2.835c0.607,4.382,1.55,8.708,2.822,12.928c1.256,4.223,2.827,8.36,4.706,12.363
							c0.929,1.987,1.745,4.082,3.018,5.872C634.545,259.008,620.627,262.466,616.705,261.791z"/>
						<g>
							<path style="fill:#CA876F;" d="M590.326,230.115c0,0-3.393,7.951-5.846,9.514c-2.453,1.563,4.088,3.214,6.387,0.167
								c0,0-2.321,1.049-2.417-0.951C588.355,236.845,590.326,230.115,590.326,230.115z"/>
							<path style="fill:#1F2326;" d="M582.259,231.893c-0.087,1.35,0.381,2.479,1.046,2.522c0.665,0.043,1.274-1.017,1.361-2.367
								c0.087-1.35-0.381-2.479-1.046-2.522C582.955,229.483,582.346,230.543,582.259,231.893z"/>
							<path style="fill:#1F2326;" d="M593.511,232.106c-0.087,1.35,0.381,2.479,1.046,2.522c0.665,0.043,1.274-1.017,1.361-2.367
								c0.087-1.35-0.381-2.479-1.046-2.522C594.207,229.696,593.598,230.756,593.511,232.106z"/>
							<path style="fill:#FFFFFF;" d="M584.25,243.233c0,0,4.36,1.815,8.988-0.54c0,0-1.77,2.848-5.223,2.83
								S584.25,243.233,584.25,243.233z"/>
						</g>
						<g>
							<path style="fill:#E9B98A;" d="M581.146,312.061c0,0-4.312-2.882-8.736-5.906c-4.423-3.024-8.628-2.998-12.336-2.851
								c-1.971,0.078-6.198,3.48-0.563,3.167c5.635-0.313-5.47,1.845,0.805,6.243c6.723,4.712,11.869,1.742,14.345,5.742
								S581.146,312.061,581.146,312.061z"/>
							<path style="fill:#60A2F4;" d="M616.449,283.514c0,0-2.725,26.184-6.679,26.952c-3.954,0.768-31.403-3.556-31.403-3.556
								l-8.082,12.461c0,0,57.261,27.055,60.846,10.869c3.585-16.186,8.235-50.348-7.29-67.138
								C620.794,259.807,616.449,283.514,616.449,283.514z"/>
						</g>
					</g>
				</g>
			</g>
		</g>
		<g>
			<polygon style="fill:#37539A;" points="379.451,327.499 372.157,327.499 397.792,454.924 405.086,454.924 			"/>
			<polygon style="fill:#37539A;" points="332.149,327.499 339.443,327.499 313.808,454.924 306.514,454.924 			"/>
			<rect x="311.984" y="321.707" style="fill:#F7F7F7;" width="251.846" height="11.584"/>
			<g>
				<rect x="482.757" y="316.038" style="fill:#304573;" width="62.63" height="4.788"/>
				<path style="fill:#304573;" d="M425.715,320.53l-19.899-45.004c-0.77-1.742,0.505-3.701,2.411-3.701h85.649
					c1.062,0,2.02,0.637,2.43,1.616l20.074,47.856L425.715,320.53z"/>
				<path style="fill:#344B7E;" d="M421.251,320.53l-19.899-45.004c-0.77-1.742,0.505-3.701,2.41-3.701h85.649
					c1.062,0,2.02,0.637,2.43,1.616l20.074,47.856L421.251,320.53z"/>
				<path style="fill:#FFFFFF;" d="M462.143,292.605c1.453,4.386-0.396,8.944-4.128,10.18c-3.732,1.236-7.936-1.318-9.388-5.704
					c-1.453-4.386,0.396-8.945,4.128-10.18C456.487,285.665,460.69,288.219,462.143,292.605z"/>
			</g>
		</g>
	</g>
	<g>
		<g>
			<g>
				<g>
					<path style="fill:#FF901B;" d="M299.61,157.389h-42.084c-5.618,0-10.172-4.555-10.172-10.172l0,0
						c0-5.618,4.554-10.172,10.172-10.172h42.084c5.618,0,10.172,4.554,10.172,10.172l0,0
						C309.782,152.834,305.228,157.389,299.61,157.389z"/>
				</g>
				<g>
					<path style="fill:#FFFFFF;" d="M270.007,147.243c0.004,1.437-1.157,2.606-2.594,2.611s-2.606-1.157-2.611-2.594
						c-0.005-1.437,1.157-2.606,2.594-2.611C268.834,144.644,270.002,145.806,270.007,147.243z"/>
					<path style="fill:#FFFFFF;" d="M281.17,147.208c0.005,1.437-1.157,2.606-2.594,2.611c-1.437,0.004-2.606-1.157-2.611-2.595
						c-0.004-1.437,1.157-2.606,2.595-2.611C279.997,144.61,281.166,145.771,281.17,147.208z"/>
					<path style="fill:#FFFFFF;" d="M292.334,147.174c0.004,1.437-1.157,2.606-2.594,2.61c-1.437,0.005-2.606-1.157-2.611-2.594
						c-0.005-1.437,1.157-2.606,2.594-2.611C291.16,144.575,292.329,145.736,292.334,147.174z"/>
				</g>
			</g>
		</g>
		<g>
			<g>
				<g>
					<circle style="fill:#F99595;" cx="636.889" cy="163.58" r="22.273"/>
				</g>
				<path style="fill:#FFFFFF;" d="M644.462,157.85c-1.825-1.787-4.748-1.756-6.533,0.069l-1.177,1.202l-1.211-1.193
					c-1.817-1.792-4.742-1.768-6.534,0.05c-1.79,1.818-1.768,4.743,0.051,6.534l4.494,4.426c0.009,0.009,0.016,0.021,0.025,0.03
					c0.717,0.703,1.604,1.123,2.526,1.265c1.422,0.219,2.924-0.228,4.007-1.333l4.421-4.515
					C646.316,162.56,646.285,159.636,644.462,157.85z"/>
			</g>
			<g>
				<g>
					<g>
						<g>
							<path style="fill:#60A2F4;" d="M533.682,95.547h-33.425c-2.957,0-5.355-2.397-5.355-5.355V61.538
								c0-2.308,1.871-4.178,4.178-4.178h34.602c2.308,0,4.178,1.871,4.178,4.178v29.831
								C537.86,93.677,535.989,95.547,533.682,95.547z"/>
						</g>
					</g>
				</g>
				<g>
					<g>
						<g>
							<path style="fill:#F9F9F9;" d="M512.835,84.69c3.644,0.062,7.334,0.112,10.685-0.12c1.061-0.074,1.978-1.759,0.689-2.291
								c0.542-0.278,1.091-0.546,1.328-1.154c0.224-0.576-0.045-1.357-0.645-1.505c1.264,0.313,1.762-1.693,0.776-2.34
								c0.522-0.445,0.956-1.032,1.066-1.709c0.11-0.677-0.167-1.44-0.769-1.768c-0.395-0.215-0.865-0.223-1.314-0.227
								c-1.516-0.011-3.031-0.023-4.546-0.034c0.41-2.372,0.534-4.956-0.671-7.039c-0.363-0.627-1.338-1.379-2.113-0.897
								c-0.726,0.453-0.524,1.578-0.488,2.287c0.152,2.95-1.527,5.918-4.133,7.308C512.7,75.2,512.873,81.484,512.835,84.69z"/>
						</g>
					</g>
					<rect x="506.005" y="75.2" style="fill:#F9F9F9;" width="5.508" height="9.481"/>
				</g>
			</g>
			<g>
				<path style="fill:#B1DCFB;" d="M694.767,240.201l-30.41,0.065c-2.022,0.003-3.663-1.634-3.665-3.656l0,0
					c-0.003-2.021,1.634-3.663,3.655-3.665l30.41-0.066c2.021-0.003,3.663,1.634,3.665,3.655l0,0
					C698.426,238.557,696.789,240.198,694.767,240.201z"/>
				<path style="fill:#B1DCFB;" d="M92.592,235.574l-62.19,0.066c-2.022,0.003-3.663-1.634-3.665-3.655l0,0
					c-0.003-2.022,1.634-3.663,3.655-3.666l62.19-0.066c2.022-0.003,3.663,1.634,3.665,3.656l0,0
					C96.25,233.93,94.614,235.571,92.592,235.574z"/>
				<path style="fill:#B1DCFB;" d="M615.467,115.728l-5.804,0.008c-1.525,0.002-2.763-1.232-2.765-2.757l-0.008-5.448
					c-0.002-1.525,1.233-2.763,2.758-2.765l5.804-0.008c1.525-0.002,2.763,1.232,2.765,2.757l0.008,5.448
					C618.226,114.488,616.992,115.726,615.467,115.728z"/>
				<path style="fill:#B1DCFB;" d="M87.085,370.832l-5.804,0.008c-1.525,0.002-2.763-1.233-2.765-2.758l-0.007-5.448
					c-0.002-1.525,1.232-2.763,2.757-2.765l5.804-0.008c1.525-0.002,2.763,1.232,2.765,2.757l0.007,5.448
					C89.845,369.591,88.61,370.829,87.085,370.832z"/>
				<path style="fill:#FFFFFF;" d="M283.727,260.226l-5.099,0.007c-1.34,0.002-2.427-1.083-2.429-2.423l-0.007-4.786
					c-0.002-1.34,1.083-2.427,2.423-2.429l5.099-0.007c1.34-0.002,2.427,1.083,2.429,2.423l0.007,4.786
					C286.151,259.137,285.066,260.224,283.727,260.226z"/>
				<path style="fill:#FFFFFF;" d="M262.502,99.152h-30.297c-1.991,0-3.605-1.614-3.605-3.604l0,0c0-1.991,1.614-3.605,3.605-3.605
					h30.297c1.991,0,3.604,1.614,3.604,3.605l0,0C266.106,97.538,264.493,99.152,262.502,99.152z"/>
				<path style="fill:#60A2F4;" d="M400.159,78.701h-30.296c-1.991,0-3.605-1.614-3.605-3.604l0,0c0-1.991,1.614-3.605,3.605-3.605
					h30.296c1.991,0,3.604,1.614,3.604,3.605l0,0C403.764,77.087,402.15,78.701,400.159,78.701z"/>
			</g>
			<g>
				<path style="fill:#F99595;" d="M330.44,97.483h-36.672c-3.679,0-6.661-2.982-6.661-6.662V62.72c0-3.679,2.982-6.661,6.661-6.661
					h36.672c3.679,0,6.661,2.983,6.661,6.661v28.101C337.101,94.5,334.119,97.483,330.44,97.483z"/>
				<g>
					<rect x="295.241" y="80.014" style="fill:#F7F7F7;" width="5.976" height="7.863"/>
					<rect x="304.491" y="74.667" style="fill:#F7F7F7;" width="5.976" height="13.21"/>
					<rect x="313.741" y="70.579" style="fill:#F7F7F7;" width="5.976" height="17.298"/>
					<rect x="322.991" y="64.446" style="fill:#F7F7F7;" width="5.976" height="23.431"/>
				</g>
			</g>
			<g>
				<circle style="fill:#DD9E10;" cx="124.562" cy="102.663" r="27.131"/>
				
					<ellipse transform="matrix(0.7071 -0.7071 0.7071 0.7071 -36.1104 118.1479)" style="fill:#F4B516;" cx="124.562" cy="102.663" rx="22.036" ry="22.036"/>
				<g>
					<path style="fill:#F7F7F7;" d="M126.316,114.093v3.787h-3.381v-3.686c-3.347-0.203-6.559-1.251-8.419-2.704l1.86-4.125
						c1.69,1.251,4.124,2.164,6.559,2.4v-5.646c-3.753-0.913-7.946-2.164-7.946-6.998c0-3.584,2.604-6.661,7.946-7.269v-3.753h3.381
						v3.686c2.536,0.203,5.004,0.879,6.863,2.062l-1.69,4.159c-1.725-0.981-3.483-1.556-5.173-1.758v5.748
						c3.753,0.879,7.878,2.13,7.878,6.898C134.193,110.408,131.624,113.451,126.316,114.093z M122.935,99.149v-4.801
						c-1.792,0.406-2.502,1.386-2.502,2.502C120.432,98.033,121.447,98.676,122.935,99.149z M128.75,107.297
						c0-1.183-0.98-1.826-2.434-2.333v4.666C128.006,109.258,128.75,108.379,128.75,107.297z"/>
				</g>
			</g>
		</g>
	</g>
	<g>
		<defs>
			<rect id="SVGID_1_" width="750" height="500"/>
		</defs>
		<clipPath id="SVGID_00000183251418272924276930000017158908303256407714_">
			<use xlink:href="#SVGID_1_"  style="overflow:visible;"/>
		</clipPath>
		<g style="clip-path:url(#SVGID_00000183251418272924276930000017158908303256407714_);">
			<g>
				<path style="fill:#EBEBEB;" d="M700.3,41.349l-7.706-1.349c-0.902-3.358-2.238-6.584-3.976-9.596l4.492-6.405
					c1.651-2.353,1.372-5.553-0.663-7.584l-4.613-4.613c-2.062-1.996-5.26-2.224-7.584-0.54l-6.405,4.491
					c-3.012-1.738-6.238-3.074-9.596-3.975l-1.326-7.878c-0.482-2.796-2.882-4.855-5.718-4.909h-6.651
					c-2.883-0.006-5.35,2.068-5.84,4.909l-1.35,7.682c-3.358,0.901-6.584,2.238-9.596,3.976l-6.381-4.295
					c-2.353-1.652-5.552-1.372-7.584,0.663l-4.613,4.614c-2.035,2.032-2.314,5.231-0.663,7.584l4.491,6.405
					c-1.738,3.012-3.074,6.238-3.975,9.596l-7.682,1.349c-2.842,0.491-4.915,2.958-4.909,5.841v6.529
					c-0.006,2.882,2.067,5.35,4.909,5.84l7.682,1.35c0.901,3.358,2.237,6.584,3.975,9.595l-4.491,6.406
					c-1.652,2.353-1.372,5.552,0.663,7.583l4.613,4.614c2.032,2.034,5.231,2.314,7.584,0.663l6.405-4.492
					c3.012,1.738,6.238,3.074,9.596,3.976l1.349,7.682c0.491,2.841,2.958,4.915,5.841,4.909h6.626
					c2.883,0.006,5.35-2.068,5.841-4.909l1.35-7.682c3.358-0.901,6.584-2.237,9.596-3.976l6.258,4.393
					c2.353,1.652,5.552,1.372,7.583-0.663l4.614-4.613c2.035-2.031,2.314-5.231,0.663-7.584l-4.492-6.455
					c1.738-3.011,3.074-6.237,3.976-9.595l7.706-1.35c2.841-0.49,4.915-2.958,4.909-5.841v-6.528
					C705.202,44.292,703.131,41.838,700.3,41.349z M653.817,68.051c-9.732,0-17.621-7.89-17.621-17.622s7.89-17.622,17.621-17.621
					c9.732,0,17.622,7.889,17.621,17.621c0,0.032,0,0.065,0,0.098C671.384,60.221,663.511,68.051,653.817,68.051z"/>
				<path style="fill:#EBEBEB;" d="M783.763,6.957l-6.187-1.083c-0.724-2.696-1.797-5.286-3.192-7.704l3.606-5.142
					c1.325-1.889,1.101-4.458-0.532-6.088l-3.704-3.704c-1.656-1.602-4.223-1.785-6.088-0.434l-5.142,3.605
					c-2.418-1.395-5.008-2.468-7.704-3.192l-1.064-6.325c-0.387-2.245-2.313-3.898-4.59-3.941h-5.34
					c-2.315-0.005-4.295,1.66-4.689,3.941l-1.084,6.167c-2.696,0.723-5.286,1.797-7.704,3.192l-5.122-3.448
					c-1.889-1.326-4.457-1.101-6.088,0.532l-3.704,3.704c-1.633,1.631-1.858,4.199-0.532,6.088l3.605,5.142
					c-1.395,2.418-2.468,5.008-3.192,7.704l-6.167,1.083c-2.281,0.394-3.946,2.375-3.941,4.689v5.241
					c-0.005,2.314,1.659,4.295,3.941,4.689l6.167,1.084c0.723,2.696,1.796,5.286,3.192,7.703l-3.605,5.143
					c-1.326,1.889-1.101,4.457,0.532,6.088l3.704,3.704c1.631,1.633,4.199,1.857,6.088,0.532l5.142-3.606
					c2.418,1.395,5.008,2.468,7.704,3.192l1.083,6.167c0.394,2.281,2.375,3.946,4.689,3.941h5.32
					c2.315,0.005,4.295-1.66,4.689-3.941l1.083-6.167c2.696-0.723,5.286-1.796,7.704-3.192l5.024,3.527
					c1.889,1.326,4.457,1.101,6.088-0.532l3.704-3.704c1.633-1.63,1.857-4.199,0.532-6.088l-3.606-5.182
					c1.395-2.417,2.468-5.007,3.192-7.703l6.187-1.084c2.281-0.394,3.946-2.375,3.941-4.689v-5.241
					C787.698,9.319,786.036,7.35,783.763,6.957z M746.446,28.393c-7.813,0-14.146-6.334-14.146-14.147
					c0-7.813,6.334-14.147,14.147-14.146c7.813,0,14.147,6.333,14.146,14.147c0,0.026,0,0.052,0,0.078
					C760.549,22.108,754.228,28.393,746.446,28.393z"/>
				<path style="fill:#EBEBEB;" d="M751.46,127.717l-6.187-1.083c-0.724-2.696-1.797-5.286-3.192-7.704l3.606-5.142
					c1.325-1.889,1.101-4.458-0.532-6.088l-3.704-3.704c-1.656-1.603-4.223-1.785-6.088-0.434l-5.142,3.605
					c-2.418-1.395-5.008-2.468-7.704-3.191l-1.064-6.325c-0.387-2.245-2.313-3.898-4.59-3.941h-5.34
					c-2.315-0.005-4.295,1.66-4.689,3.941l-1.084,6.167c-2.696,0.723-5.286,1.797-7.704,3.192l-5.122-3.448
					c-1.889-1.326-4.457-1.101-6.088,0.532l-3.704,3.704c-1.633,1.631-1.858,4.199-0.532,6.088l3.605,5.142
					c-1.395,2.418-2.468,5.008-3.191,7.704l-6.167,1.083c-2.281,0.394-3.946,2.375-3.941,4.689v5.241
					c-0.005,2.314,1.659,4.295,3.941,4.689l6.167,1.084c0.723,2.696,1.796,5.286,3.191,7.703l-3.605,5.143
					c-1.326,1.889-1.101,4.457,0.532,6.088l3.704,3.704c1.631,1.633,4.199,1.857,6.088,0.532l5.142-3.606
					c2.418,1.395,5.008,2.468,7.704,3.192l1.083,6.167c0.394,2.281,2.375,3.946,4.689,3.941h5.32
					c2.315,0.005,4.295-1.66,4.689-3.941l1.083-6.167c2.696-0.723,5.286-1.796,7.704-3.192l5.024,3.527
					c1.889,1.326,4.457,1.101,6.088-0.532l3.704-3.704c1.633-1.63,1.857-4.199,0.532-6.088l-3.606-5.182
					c1.395-2.417,2.468-5.007,3.192-7.703l6.187-1.084c2.281-0.393,3.946-2.375,3.941-4.689v-5.241
					C755.396,130.08,753.734,128.11,751.46,127.717z M714.143,149.154c-7.813,0-14.146-6.334-14.146-14.147
					c0-7.813,6.334-14.147,14.147-14.146c7.813,0,14.147,6.333,14.146,14.147c0,0.026,0,0.052,0,0.079
					C728.247,142.868,721.926,149.154,714.143,149.154z"/>
			</g>
			<g>
				<path style="fill:#EBEBEB;" d="M5.223,198.866l-7.706-1.35c-0.902-3.358-2.238-6.584-3.976-9.596l4.492-6.405
					c1.651-2.353,1.372-5.553-0.663-7.584l-4.613-4.614c-2.062-1.996-5.26-2.223-7.584-0.54l-6.405,4.491
					c-3.012-1.738-6.238-3.074-9.596-3.975l-1.326-7.878c-0.482-2.796-2.882-4.855-5.718-4.909h-6.651
					c-2.883-0.006-5.35,2.068-5.84,4.909l-1.35,7.682c-3.358,0.901-6.584,2.238-9.596,3.976l-6.381-4.295
					c-2.353-1.652-5.552-1.372-7.584,0.663l-4.614,4.613c-2.035,2.032-2.314,5.231-0.663,7.584l4.491,6.405
					c-1.738,3.012-3.074,6.238-3.975,9.596l-7.682,1.349c-2.842,0.491-4.915,2.958-4.909,5.841v6.529
					c-0.006,2.882,2.067,5.35,4.909,5.84l7.682,1.35c0.901,3.358,2.237,6.584,3.975,9.595l-4.491,6.406
					c-1.652,2.353-1.372,5.552,0.663,7.583l4.614,4.614c2.032,2.034,5.231,2.314,7.584,0.663l6.405-4.492
					c3.012,1.738,6.238,3.074,9.596,3.976l1.35,7.682c0.491,2.841,2.958,4.915,5.841,4.909h6.626
					c2.883,0.006,5.35-2.068,5.841-4.909l1.349-7.682c3.358-0.901,6.584-2.237,9.596-3.976l6.258,4.393
					c2.353,1.652,5.552,1.372,7.583-0.663l4.614-4.613c2.035-2.031,2.314-5.231,0.663-7.584l-4.492-6.455
					c1.738-3.011,3.074-6.237,3.976-9.595l7.706-1.35c2.841-0.49,4.915-2.958,4.909-5.841v-6.528
					C10.125,201.809,8.054,199.355,5.223,198.866z M-41.26,225.568c-9.732,0-17.621-7.89-17.621-17.622
					c0-9.732,7.89-17.621,17.621-17.621c9.732,0,17.621,7.889,17.621,17.622c0,0.032,0,0.065,0,0.098
					C-23.693,217.738-31.566,225.568-41.26,225.568z"/>
				<path style="fill:#EBEBEB;" d="M88.686,164.474l-6.187-1.083c-0.724-2.696-1.797-5.286-3.192-7.704l3.606-5.142
					c1.325-1.889,1.101-4.458-0.532-6.088l-3.704-3.704c-1.656-1.602-4.223-1.785-6.088-0.434l-5.142,3.605
					c-2.418-1.395-5.008-2.468-7.704-3.191l-1.064-6.325c-0.387-2.245-2.313-3.898-4.59-3.941h-5.34
					c-2.315-0.005-4.295,1.66-4.689,3.941l-1.084,6.167c-2.696,0.723-5.286,1.797-7.704,3.192l-5.123-3.448
					c-1.889-1.326-4.457-1.101-6.088,0.532l-3.704,3.704c-1.633,1.631-1.858,4.199-0.532,6.088l3.605,5.142
					c-1.395,2.418-2.468,5.008-3.192,7.704l-6.167,1.083c-2.281,0.394-3.946,2.375-3.941,4.689v5.241
					c-0.005,2.314,1.66,4.295,3.941,4.689l6.167,1.084c0.723,2.696,1.796,5.286,3.192,7.703l-3.605,5.143
					c-1.326,1.889-1.101,4.457,0.532,6.088l3.704,3.704c1.631,1.633,4.199,1.857,6.088,0.532l5.142-3.606
					c2.418,1.395,5.008,2.468,7.704,3.192l1.083,6.167c0.394,2.281,2.375,3.946,4.689,3.941h5.32
					c2.315,0.005,4.295-1.66,4.689-3.941l1.083-6.167c2.696-0.723,5.286-1.796,7.704-3.192l5.024,3.527
					c1.889,1.326,4.457,1.101,6.088-0.532l3.704-3.704c1.633-1.63,1.857-4.199,0.532-6.088l-3.606-5.182
					c1.395-2.417,2.468-5.007,3.192-7.703l6.187-1.084c2.281-0.393,3.946-2.375,3.941-4.689v-5.241
					C92.621,166.836,90.959,164.867,88.686,164.474z M51.369,185.91c-7.813,0-14.146-6.334-14.146-14.147
					c0-7.813,6.334-14.147,14.147-14.146c7.813,0,14.147,6.333,14.146,14.147c0,0.026,0,0.052,0,0.079
					C65.472,179.625,59.151,185.91,51.369,185.91z"/>
				<path style="fill:#EBEBEB;" d="M56.383,285.235l-6.187-1.083c-0.724-2.696-1.797-5.286-3.192-7.704l3.606-5.142
					c1.325-1.889,1.101-4.458-0.532-6.088l-3.704-3.704c-1.656-1.603-4.223-1.785-6.088-0.434l-5.142,3.605
					c-2.418-1.395-5.008-2.468-7.704-3.191l-1.064-6.325c-0.387-2.245-2.314-3.898-4.59-3.941h-5.34
					c-2.315-0.005-4.295,1.66-4.689,3.941l-1.084,6.167c-2.696,0.723-5.286,1.797-7.704,3.192l-5.122-3.448
					c-1.889-1.326-4.457-1.101-6.088,0.532l-3.704,3.704c-1.633,1.631-1.858,4.199-0.532,6.088l3.605,5.142
					c-1.395,2.418-2.468,5.008-3.191,7.704l-6.167,1.083c-2.281,0.394-3.946,2.375-3.941,4.689v5.241
					c-0.005,2.314,1.66,4.295,3.941,4.689l6.167,1.084c0.723,2.696,1.796,5.286,3.191,7.703l-3.605,5.143
					c-1.326,1.889-1.101,4.457,0.532,6.088l3.704,3.704c1.631,1.633,4.199,1.857,6.088,0.532l5.142-3.606
					c2.418,1.395,5.008,2.468,7.704,3.192l1.083,6.167c0.394,2.281,2.375,3.946,4.689,3.941h5.32
					c2.315,0.005,4.295-1.66,4.689-3.941l1.083-6.167c2.696-0.723,5.286-1.796,7.704-3.192l5.024,3.527
					c1.889,1.326,4.457,1.101,6.088-0.532l3.704-3.704c1.633-1.63,1.857-4.199,0.532-6.088l-3.606-5.182
					c1.395-2.417,2.468-5.007,3.192-7.703l6.187-1.084c2.281-0.393,3.946-2.375,3.941-4.689v-5.241
					C60.319,287.597,58.657,285.628,56.383,285.235z M19.066,306.671c-7.813,0-14.146-6.334-14.146-14.147
					c0-7.813,6.334-14.147,14.147-14.146c7.813,0,14.147,6.333,14.146,14.147c0,0.026,0,0.052,0,0.079
					C33.17,300.385,26.849,306.671,19.066,306.671z"/>
			</g>
		</g>
	</g>
</g>
</svg>
