<svg width="69" height="69" viewBox="0 0 69 69" fill="none" xmlns="http://www.w3.org/2000/svg">
<circle cx="34.4964" cy="34.4964" r="34.4964" fill="#FEF4E8"/>
<g clip-path="url(#clip0_780_62)">
<path d="M44.0574 28.1796C44.0451 27.5316 44.0333 26.9195 44.0333 26.3273C44.0333 26.1045 43.9448 25.8908 43.7873 25.7333C43.6297 25.5757 43.4161 25.4872 43.1933 25.4872C39.6006 25.4872 36.8653 24.4547 34.5852 22.2379C34.4284 22.0853 34.2183 22 33.9996 22C33.7808 22 33.5707 22.0853 33.4139 22.2379C31.1341 24.4547 28.3992 25.4872 24.8068 25.4872C24.584 25.4872 24.3703 25.5757 24.2128 25.7333C24.0552 25.8908 23.9667 26.1045 23.9667 26.3273C23.9667 26.9196 23.9551 27.5319 23.9426 28.18C23.8275 34.2101 23.6698 42.4686 33.7244 45.9537C33.9026 46.0155 34.0964 46.0155 34.2746 45.9537C44.33 42.4685 44.1726 34.2098 44.0574 28.1796ZM33.9996 44.2685C25.3765 41.136 25.5068 34.2738 25.6225 28.2121C25.6295 27.8483 25.6362 27.4957 25.6409 27.15C29.0056 27.008 31.6963 25.9884 33.9996 23.9818C36.3032 25.9884 38.9943 27.0081 42.3593 27.15C42.364 27.4955 42.3707 27.8479 42.3776 28.2115C42.4932 34.2735 42.6235 41.1359 33.9996 44.2685Z" fill="#FF8C00"/>
<path d="M36.8925 31.0819L32.8379 35.1363L31.1077 33.4061C30.9493 33.2529 30.737 33.1681 30.5166 33.17C30.2963 33.1719 30.0855 33.2602 29.9296 33.4161C29.7738 33.5719 29.6855 33.7827 29.6836 34.0031C29.6818 34.2234 29.7666 34.4357 29.9197 34.5941L32.2439 36.9183C32.3218 36.9964 32.4144 37.0583 32.5164 37.1006C32.6183 37.1428 32.7276 37.1644 32.8379 37.1643C32.9482 37.1644 33.0575 37.1428 33.1594 37.1006C33.2614 37.0583 33.3539 36.9964 33.4319 36.9183L38.0803 32.27C38.1584 32.192 38.2203 32.0994 38.2625 31.9975C38.3047 31.8956 38.3265 31.7863 38.3265 31.676C38.3265 31.5657 38.3048 31.4565 38.2626 31.3545C38.2203 31.2526 38.1585 31.16 38.0804 31.082C37.9229 30.9245 37.7093 30.836 37.4865 30.8359C37.2637 30.8359 37.05 30.9244 36.8925 31.0819Z" fill="#FF8C00"/>
</g>
<defs>
<clipPath id="clip0_780_62">
<rect width="24" height="24" fill="white" transform="translate(22 22)"/>
</clipPath>
</defs>
</svg>
