<svg width="69" height="69" viewBox="0 0 69 69" fill="none" xmlns="http://www.w3.org/2000/svg">
<circle cx="34.4964" cy="34.4964" r="34.4964" fill="#FEF4E8"/>
<path d="M44.3041 31.9946C44.2554 31.9308 44.1841 31.8776 44.0977 31.8406C44.0112 31.8036 43.9128 31.7841 43.8125 31.7841H34.25V24.4096C34.25 24.3206 34.2101 24.234 34.1365 24.1629C34.0628 24.0918 33.9593 24.0401 33.8417 24.0157C33.7241 23.9913 33.5988 23.9954 33.4848 24.0275C33.3707 24.0596 33.2741 24.1179 33.2096 24.1936L23.0846 36.0746C23.0317 36.1366 23.0026 36.2078 23.0002 36.2808C22.9978 36.3538 23.0222 36.426 23.0709 36.4898C23.1197 36.5536 23.191 36.6068 23.2774 36.6438C23.3638 36.6808 23.4623 36.7003 23.5625 36.7003H33.125V44.0747C33.1251 44.1638 33.1649 44.2504 33.2386 44.3215C33.3123 44.3926 33.4157 44.4443 33.5333 44.4687C33.6509 44.4931 33.7762 44.4889 33.8903 44.4568C34.0043 44.4247 34.1009 44.3664 34.1654 44.2908L44.2904 32.4098C44.3433 32.3477 44.3724 32.2765 44.3748 32.2035C44.3772 32.1305 44.3528 32.0584 44.3041 31.9946ZM34.25 42.6378V36.2906C34.25 36.0644 33.9981 35.8809 33.6875 35.8809H24.5738L33.125 25.8465V32.1937C33.125 32.42 33.3769 32.6034 33.6875 32.6034H42.8013L34.25 42.6378Z" fill="#FF8C00"/>
</svg>
