<?xml version="1.0" encoding="utf-8"?>
<!-- Generator: Adobe Illustrator 27.5.0, SVG Export Plug-In . SVG Version: 6.00 Build 0)  -->
<svg version="1.1" id="Layer_1" xmlns="http://www.w3.org/2000/svg" xmlns:xlink="http://www.w3.org/1999/xlink" x="0px" y="0px"
	 viewBox="0 0 3208.431 2000" style="enable-background:new 0 0 3208.431 2000;" xml:space="preserve">
<g>
	<g>
		<g>
			
				<rect x="-0.001" y="-0.001" transform="matrix(-1 -1.224647e-16 1.224647e-16 -1 3208.4302 1999.998)" style="fill:#FFFFFF;" width="3208.431" height="2000"/>
			<path style="fill:#D6EEF6;" d="M343.1,1823.896c-117.432-58.647-157.207-262.16-63.427-511.425
				c69.287-184.161-77.833-341.407-86.713-557.329C163.556,40.243,1513.518,21.617,2368.308,392.31
				c944.66,409.667,672.66,1234.995,327.326,1431.586C2237.476,1823.896,343.1,1823.896,343.1,1823.896z"/>
			<path style="opacity:0.8;fill:#F0FBFF;" d="M562.556,1396.752c-4.53,0-8.924,0.429-13.112,1.23
				c-12.179-19.165-38.61-32.443-69.259-32.443c-7.924,0-15.567,0.887-22.754,2.534c-16.5-20.105-46.477-33.548-80.722-33.548
				c-40.744,0-75.447,19.028-88.595,45.667c-8.236-3.379-17.578-5.472-27.526-5.91c-5.428,17.666-10.162,35.046-14.232,52.107
				h366.819C607.874,1409.415,587.231,1396.752,562.556,1396.752z"/>
			<path style="opacity:0.8;fill:#F0FBFF;" d="M1938.362,410.382c-7.573-24.256-37.071-42.353-72.333-42.353
				c-6.474,0-12.752,0.613-18.737,1.759c-17.404-27.386-55.173-46.361-98.971-46.361c-11.324,0-22.244,1.269-32.514,3.622
				c-23.579-28.73-66.414-47.94-115.351-47.94c-58.222,0-107.812,27.191-126.601,65.257c-13.301-5.457-28.613-8.578-44.921-8.578
				c-51.034,0-92.405,30.443-92.405,67.996c0,2.226,0.156,4.426,0.44,6.598H1938.362z"/>
			<path style="opacity:0.8;fill:#F0FBFF;" d="M2590.872,1538.798c-6.151-19.701-30.11-34.399-58.75-34.399
				c-5.259,0-10.358,0.497-15.22,1.428c-14.136-22.243-44.813-37.656-80.387-37.656c-9.197,0-18.067,1.03-26.408,2.942
				c-19.151-23.335-53.943-38.938-93.691-38.938c-47.29,0-87.568,22.086-102.829,53.004c-10.804-4.432-23.24-6.967-36.486-6.967
				c-41.451,0-75.054,24.727-75.054,55.229c0,1.808,0.127,3.595,0.357,5.358H2590.872z"/>
			<path style="opacity:0.8;fill:#F0FBFF;" d="M2043.729,1236.258c-5.273-18.355-25.817-32.051-50.376-32.051
				c-4.508,0-8.88,0.464-13.05,1.331c-12.12-20.726-38.425-35.085-68.928-35.085c-7.886,0-15.491,0.959-22.644,2.741
				c-16.421-21.741-46.255-36.279-80.337-36.279c-40.549,0-75.085,20.577-88.171,49.384c-9.264-4.129-19.928-6.49-31.286-6.49
				c-35.542,0-64.354,23.037-64.354,51.457c0,1.685,0.108,3.349,0.307,4.992H2043.729z"/>
			<path style="opacity:0.8;fill:#F0FBFF;" d="M610.05,599.438c5.068-16.007,24.811-27.948,48.411-27.948
				c4.332,0,8.534,0.405,12.54,1.16c11.648-18.071,36.926-30.594,66.24-30.594c7.579,0,14.888,0.837,21.761,2.391
				c15.781-18.959,44.45-31.636,77.203-31.636c38.967,0,72.157,17.944,84.733,43.063c8.901-3.601,19.149-5.66,30.064-5.66
				c34.156,0,61.846,20.089,61.846,44.87c0,1.469-0.104,2.921-0.295,4.354H610.05z"/>
		</g>
		<g>
			<path style="fill:#3C8F7C;" d="M221.007,1822.8l2719.643,2.268c6.538,0.006,11.835,5.188,11.835,11.579l0,0
				c0,6.398-5.309,11.584-11.854,11.579l-2719.642-2.268c-6.538-0.006-11.834-5.188-11.835-11.579l0,0
				C209.153,1827.98,214.461,1822.795,221.007,1822.8z"/>
		</g>
	</g>
	<g>
		<g>
			
				<rect x="915.687" y="1596.993" transform="matrix(0.9825 0.1863 -0.1863 0.9825 335.1752 -141.5493)" style="fill:#184655;" width="10.09" height="231.214"/>
			<polygon style="fill:#184655;" points="1362.877,1828.178 1374.802,1828.178 1330.363,1598.055 1320.45,1599.934 			"/>
			<polygon style="fill:#184655;" points="1014.754,1828.178 1026.679,1828.178 982.241,1598.055 972.327,1599.934 			"/>
			<polygon style="fill:#184655;" points="1254.229,1828.178 1244.547,1828.294 1287.151,1599.088 1297.065,1600.967 			"/>
			<path style="fill:#86B1F2;" d="M1082.638,1099.343c-52.93,5.668-121.428,11.648-190.194,128.343
				c-75.157,127.541-35.594,318.056,23.726,370.997c59.32,52.941,253.06,118.311,415.922,20.448c0,0,98.338-59.306,47.87-157.73
				c-77.665-151.465-66.69-183.051-101.416-242.408C1243.82,1159.633,1194.992,1087.311,1082.638,1099.343z"/>
			<path style="fill:#6394DB;" d="M892.444,1227.686c46.935-79.648,93.744-107.714,135.565-119.313
				c-16.176,16.74-32.575,38.275-48.99,66.131c-75.157,127.541-35.593,318.056,23.726,370.997
				c52.606,46.949,210.923,103.653,359.672,47.641c-15.293,16.924-30.325,25.989-30.325,25.989
				c-162.863,97.862-356.603,32.493-415.922-20.448C856.85,1545.741,817.287,1355.227,892.444,1227.686z"/>
			<polygon style="fill:#F79C8D;" points="1252.573,1293.198 1266.178,1334.012 1224.717,1317.705 			"/>
			<path style="fill:#0F2E35;" d="M1209.831,1171.743c2.764,0.114,10.338,2.64,21.414,23.501
				c14.145,26.64,34.817,107.115,34.817,107.115l-61.707,22.902l-7.927-16.797l-13.056-129.316
				C1183.372,1179.148,1209.065,1171.711,1209.831,1171.743z"/>
			<path style="fill:#184655;" d="M1128.262,1160.143c17.645,0.023,61.304,5.154,81.569,11.606c0,0,14.886,127.513-13.402,224.406
				c-6.333,21.689,5.237,89.911,5.237,89.911l-182.843-2.404c0,0,21.661-164.93,13.501-191.57
				c-8.16-26.64-8.355-119.484-8.355-119.484s1.253-0.195,41.08-7.057C1083.625,1162.351,1109.422,1160.118,1128.262,1160.143z"/>
			<path style="fill:#F7A491;" d="M1105.491,1729.525c0,0,4.045,46.528,11.482,59.413c7.437,12.885-0.392,34.789-0.783,37.796
				c-0.391,3.006-15.657,7.301-39.926,4.725c-24.269-2.577-23.877-8.161-21.92-17.18c1.957-9.02,14.874-20.616,15.657-29.206
				c0.783-8.59-7.437-39.514-7.437-39.514L1105.491,1729.525z"/>
			<path style="fill:#E5B05C;" d="M1181.036,1447.663c0,0,126.217-6.985,154.402,10.026c28.186,17.012-5.097,51.945-5.097,51.945
				s-102.754,44.523-274.781,54.418c-40.736,2.343-44.248-105.856-36.63-114.811
				C1026.548,1440.289,1181.036,1447.663,1181.036,1447.663z"/>
			<path style="fill:#86B1F2;" d="M1073.237,1835.07c-24.991-2.653-21.9-14.89-19.885-24.177
				c1.262-5.815,8.431-12.671,12.705-19.156c2.234,1.774,5.868,4.905,16.72,8.1c11.271,3.317,26.719-3.248,36.563-7.36
				c3.508,13.014,3.669,29.609,3.341,32.127C1122.278,1827.699,1098.228,1837.724,1073.237,1835.07z"/>
			<path style="fill:#F7CC7F;" d="M1088.496,1537.652c5.042,38.029,30.011,227.346,30.011,227.346l-57.933,7.158
				c0,0-71.241-247.103-67.588-284.897c3.653-37.796,30.321-40.976,30.321-40.976S1075.149,1436.983,1088.496,1537.652z"/>
			<path style="fill:#F7A491;" d="M1021.978,1186.78c17.096-6.392,25.459,147.121,27.764,210.308
				c30.274,2.902,83.042,0.021,96.181-0.962c6.18-0.462,20.428-5.663,26.573-6.465c6.298-0.822,12.007-1.25,15.103-0.714
				c1.137,0.197,32.692,13.059,35.392,15.879c3.348,3.498,12.398,12.32,10.871,16.136s-17.407-10.63-17.407-10.63l-7.76-4.34
				c9.661,9.406,28.087,21.792,25.433,26.303c-2.588,4.399-19.21-8.171-31.056-16.738c10.161,9.146,22.784,25.514,19.875,28.065
				c-2.614,2.293-16.972-16.656-32.318-22.113c-5.687-2.021-11.354,3.578-15.828,4.255c-3.288,0.497-8.364,1.555-11.589,0.644
				l-16.615-4.696c-5.66,0.511-5.802,3.848-11.517,5.06c-6.636,1.407-17.522,2.89-25.973,4.947
				c-48.66,11.849-64.89,17.351-79.788,17.342C984.192,1449.032,981.575,1201.886,1021.978,1186.78z"/>
			<path style="fill:#184655;" d="M989.535,1330.902c-3.202-64.723-2.734-144.496,33.671-158.106
				c14.364-5.37,39.687,26.919,35.133,159.421C1038.904,1333.815,1010.372,1335.104,989.535,1330.902z"/>
			<path style="fill:#F7A491;" d="M1276.363,1762.535c0,0-5.055,16.152,3.996,26.834c9.052,10.681,46.663,21.161,51.6,26.946
				c4.937,5.785,4.563,10.713,4.563,10.713l-105.564-2.896l1.15-31.773l4.861-22.832L1276.363,1762.535z"/>
			<path style="fill:#86B1F2;" d="M1286.925,1794.695c0,0-27.125,10.935-40.227,4.46c-13.102-6.474-12.707-8.268-16.498-5.853
				c-3.792,2.414-5.149,34.875-5.149,34.875l118.704,0.8c8.261-0.189,12.437-6.252,5.725-11.442
				c-4.601-3.559-9.919-5.941-12.941-7.669C1327.252,1804.56,1286.925,1794.695,1286.925,1794.695z"/>
			<path style="fill:#F7CC7F;" d="M1272.362,1477.479c8.159-17.112,26.715-39.391,59.365-25.973
				c31.141,12.798,39.498,44.251,29.673,76.459c-9.825,32.209-74.506,221.545-76.761,247.577l-51.644,0.341
				c0,0,9.385-149.919,11.688-186.156C1246.9,1554.858,1258.241,1507.095,1272.362,1477.479z"/>
			<path style="fill:#F2E9DA;" d="M1356.2,1303.093h-172.632c-4.568,0-8.682,2.76-10.415,6.985l-53.155,129.644h-95.173
				c-2.662,0-4.819,2.155-4.819,4.814l0,0c0,2.659,2.157,4.815,4.819,4.815h270.871c7.447,0,14.201-4.371,17.25-11.165
				l53.523-119.228C1369.813,1311.511,1364.364,1303.093,1356.2,1303.093z"/>
			<path style="fill:#FFFFFF;" d="M1263.255,1378.584c-1.166,5.823-6.246,9.718-11.345,8.698c-5.1-1.02-8.289-6.567-7.123-12.39
				c1.166-5.823,6.245-9.718,11.345-8.698C1261.232,1367.214,1264.421,1372.762,1263.255,1378.584z"/>
			<path style="fill:#F7A491;" d="M1107.283,1105.482l-8.447,55.672c0,0,30.846,66.287,49.261,60.538
				c15.451-4.824,5.945-63.476,5.945-63.476s-8.422-31.498-5.896-47.26C1150.672,1095.195,1107.283,1105.482,1107.283,1105.482z"/>
			<path style="opacity:0.2;fill:#F47458;" d="M1148.146,1110.957c2.525-15.762-40.863-5.475-40.863-5.475l-0.7,4.617
				c1.27,3.089,2.821,5.732,4.705,7.76c9.692,10.43,24.84,16.694,37.938,17.168
				C1147.916,1126.529,1147.111,1117.42,1148.146,1110.957z"/>
			<g>
				<path style="fill:#F7A491;" d="M1100.164,1026.723c-1.225-0.445-9.829,63.406,6.497,80.975
					c16.326,17.568,48.136,23.319,59.546,9.482c12.621-15.305,11.986-83.931-13.397-102.004
					C1127.426,997.104,1100.164,1026.723,1100.164,1026.723z"/>
				<path style="fill:#184655;" d="M1143.147,981.021c-19.62,4-32.329,15.991-36.999,21.101
					c-8.908,1.052-21.017,5.976-33.521,26.678c-15.375,25.456-4.021,53.658,13.876,67.495
					c17.897,13.838,17.648,29.821,17.648,29.821l2.829-8.268c2.088-6.264,2.94-12.904,2.242-19.473
					c-0.419-3.942-1.263-8.204-2.895-11.708c-4.305-9.241,9.246-15.381,13.046-23.069c2.925-5.92,3.067-19.463,7.677-29.248
					l5.505-7.471c0,0,12.7-9.883,25.125-7.094C1170.107,1022.574,1168.32,975.888,1143.147,981.021z"/>
				<path style="fill:#F7A491;" d="M1118.54,1074.961c0.129,7.79-3.412,14.168-7.91,14.245c-4.498,0.076-8.249-6.177-8.379-13.967
					c-0.129-7.79,3.412-14.168,7.91-14.245C1114.659,1060.918,1118.41,1067.171,1118.54,1074.961z"/>
			</g>
			<path style="fill:#FFFFFF;" d="M1140.582,1096.557l24.609-1.274c0,0-0.083,9.376-10.889,10.249
				C1141.125,1106.596,1140.582,1096.557,1140.582,1096.557z"/>
		</g>
		<g>
			<path style="fill:#F7A491;" d="M490.597,1725.26c0,0-4.937,34.439-13.431,45.553c-2.852,3.729-8.058,8.447-11.477,15.189
				c-5.32,10.493-2.379,26.116,1.546,34.721c2.015,4.417-0.142,4.404,4.446,5.827c13.586,4.215,28.038-2.884,33.822-15.968
				c3.231-7.311,6.065-17.061,6.635-29.347c1.451-31.269,11.121-47.168,11.121-47.168L490.597,1725.26z"/>
			<path style="fill:#F7A491;" d="M639.189,1741.012c0,0,3.048,38.834,0.575,51.454c-1.325,6.759-8.703,20.669-5.319,27.029
				c3.384,6.359,7.252,7.949,7.252,7.949l87.713,1.421c4.778,0.078,1.621-3.015-2.232-5.863
				c-6.306-4.663-11.395-7.745-31.537-17.544c-1.313-0.639-6.097-3.697-7.821-4.757c-4.373-2.686-8.766-6.913-12.547-11.146
				c-6.298-7.052-6.848-41.25-6.848-41.25L639.189,1741.012z"/>
			<path style="fill:#13375B;" d="M707.745,1224.814c0,0,11.046,63.053,3.793,104.389c-7.252,41.336-42.061,424.49-42.061,424.49
				l-38.683,2.195c0,0-8.108-160.053-6.657-182.311c1.45-22.258,12.929-59.506,12.929-59.506l-3.85-129.225l48.813-169.764
				L707.745,1224.814z"/>
			<path style="fill:#355389;" d="M594.056,1211.555c0,0-30.458,46.105-37.71,84.262c-7.252,38.156,5.323,155.42-8.628,205.421
				c-7.552,27.067-36.173,68.867-40.525,103.844c-4.351,34.978-21.421,126.597-21.421,126.597l38.664,7.707l89.859-228.813
				l70.484-206.813l18.056-106.515L594.056,1211.555z"/>
			<path style="fill:#F7CC7F;" d="M508.138,1803.698c-21.072,3.864-35.093-8.532-42.389-17.813
				c-5.355,10.513-7.969,26.201-4.029,34.837c3.47,7.607,13.609,7.389,21.594,7.688c8.441,0.315,14.973-4.401,19.161-11.794
				C504.431,1813.164,506.448,1808.865,508.138,1803.698z"/>
			<path style="fill:#F7CC7F;" d="M687.809,1800.693c-23.197,5.986-40.345,1.917-49.937-1.973
				c-2.474,7.051-5.753,15.896-4.014,20.996c2.129,6.245,5.162,7.657,7.839,7.728c21.189,0.56,77.614,1.321,93.771,1.533
				c2.256,0.03,3.5-2.622,2.05-4.363C733.511,1819.802,689.537,1801.756,687.809,1800.693z"/>
			<path style="fill:#F7CC7F;" d="M696.338,902.863c0.774-20.232,1.439-40.571-13.7-59.917
				c-12.251-15.656-29.833-22.766-48.498-21.641c-52.883,3.186-33.107,49.528-103.587,73.032
				c-21.9,7.303-42.226,14.192-58.986,28.759c-30.261,26.303-37.22,61.001-5.229,109.722
				c78.336,119.299,189.827-16.727,205.8-43.201C687.989,963.344,695.84,915.887,696.338,902.863z"/>
			<path style="fill:#F79C8D;" d="M688.691,977.633l106.433-81.16c0,0,66.433-76.711,68.564-79.174
				c2.13-2.463-7.327-44.844-1.985-44.225c5.341,0.619,3.731,21.886,9.813,21.496c6.081-0.389,38.348-41.214,40.493-37.82
				c4.013,6.351-18.771,25.78-16.356,28.411c2.415,2.631,21.844-22.555,27.387-19.58c5.543,2.976-20.662,22.042-19.841,24.871
				c0.82,2.829,27.14-14.54,28.474-8.3c0.725,3.389-23.794,14.863-20.967,17.81c2.827,2.946,23.031-2.861,23.494,1.111
				c0.464,3.973-17.658,2.56-25.879,9.81c-8.222,7.249-18.024,8.101-27.622,23.582c-9.598,15.48-36.94,74.2-65.803,97.935
				c-28.861,23.736-92.488,76.359-92.488,76.359L688.691,977.633z"/>
			<path style="fill:#50BFA5;" d="M655.753,984.54c23.485-11.81,95.038-57.583,95.038-57.583c14.667,12.333,24.333,42,24.333,42
				c-50,40.732-93.244,73.667-93.244,73.667C663.791,1010.29,655.753,984.54,655.753,984.54z"/>
			<path style="fill:#96D9C9;" d="M609.892,972.464c0,0-26.565,3.014-42.455,20.299c-15.89,17.284,25.684,156.222,28.573,178.22
				c2.889,21.998-27.628,82.883-27.628,82.883s103.735,20.62,130.701,2.812c0,0,2.369-170.028-0.521-185.741
				c-2.889-15.715-28.931-84.587-34.709-90.873C650.124,979.29,609.892,972.464,609.892,972.464z"/>
			<path style="fill:#F7A491;" d="M623.263,918.902c0,0-0.208,1.181-0.582,3.189c-1.79,9.637-8.687,41.606-13.346,50.395
				c-5.629,10.62,19.274,44.495,43.244,40.36c7.135-1.23-6.031-31.124-5.398-34.29c1.211-6.062,2.854-14.331,4.534-22.81
				c0.948-4.783,1.909-9.633,2.811-14.19c2.563-12.953,4.655-23.547,4.655-23.547L623.263,918.902z"/>
			<path style="opacity:0.5;fill:#F47458;" d="M622.681,922.092c0.374-2.009,0.582-3.189,0.582-3.189l35.918-0.894
				c0,0-2.092,10.594-4.655,23.547c-0.897,4.532-1.852,9.354-2.794,14.111c-5.545-0.815-11.34-3.505-17.149-8.581
				c-6.334-5.533-10.485-12.182-12.991-19.281C622.034,925.539,622.403,923.586,622.681,922.092z"/>
			<path style="fill:#F7A491;" d="M635.701,836.045c0,0-14.055,4.597-22.07,19.959c-8.015,15.362-11.759,59.079,18.269,77.069
				c30.028,17.989,51.039-12.285,49.939-40.172C680.738,865.016,673.319,828.253,635.701,836.045z"/>
			<path style="fill:#F7A491;" d="M688.192,884.824c-0.455,6.853-3.953,12.057-7.814,11.624c-3.861-0.434-6.622-6.339-6.167-13.192
				c0.455-6.853,3.953-12.057,7.813-11.624C685.886,872.065,688.646,877.972,688.192,884.824z"/>
			<path style="fill:#F7CC7F;" d="M651.734,833.28c0,0-26.87,44.997-42.464,49.699c-15.594,4.701-13.889,26.143-13.889,26.143
				s-3.054-49.565,11.024-61.767C620.483,835.154,651.734,833.28,651.734,833.28z"/>
			<path style="fill:#F7A491;" d="M616.18,891.486c2.564,6.807,1.122,13.732-3.219,15.469c-4.341,1.736-9.939-2.374-12.502-9.181
				c-2.564-6.807-1.123-13.732,3.219-15.469C608.018,880.569,613.616,884.68,616.18,891.486z"/>
			<path style="fill:#F7CC7F;" d="M615.332,1085.217l111.237,16.273c3.344,0.488,5.658,3.596,5.169,6.939l-21.71,148.402
				c-0.489,3.345-3.597,5.658-6.94,5.169l-111.237-16.272c-3.344-0.489-5.658-3.597-5.169-6.941l21.71-148.402
				C608.881,1087.041,611.988,1084.728,615.332,1085.217z"/>
			<path style="fill:#13375B;" d="M698.301,1092.436c0.099-0.678-0.37-1.308-1.048-1.406l-46.399-6.788
				c-0.678-0.099-1.308,0.37-1.407,1.048l-0.706,4.822l48.854,7.146L698.301,1092.436z"/>
			<path style="fill:#13375B;" d="M674.912,1081.771c-4.042-0.591-7.797,2.206-8.388,6.248c-0.591,4.041,2.206,7.796,6.247,8.388
				c4.042,0.591,7.797-2.206,8.389-6.247C681.75,1086.119,678.953,1082.363,674.912,1081.771z M673.155,1093.782
				c-2.592-0.38-4.386-2.788-4.006-5.38c0.379-2.592,2.788-4.385,5.379-4.006c2.592,0.379,4.385,2.787,4.006,5.379
				S675.747,1094.161,673.155,1093.782z"/>
			<path style="fill:#355389;" d="M697.717,1091.195c0.414,0.251,0.659,0.732,0.584,1.24l-0.706,4.822l-48.854-7.146
				c-0.489,3.342,1.824,6.445,5.165,6.935l36.754,5.377c3.341,0.489,6.446-1.823,6.935-5.165l0.706-4.822
				C698.375,1091.928,698.13,1091.446,697.717,1091.195z"/>
			<path style="fill:#FFFFFF;" d="M668.045,909.3l-24.66,4.31c0,0,2.205,9.267,13.104,7.685
				C669.78,919.366,668.045,909.3,668.045,909.3z"/>
			<path style="fill:#F7A491;" d="M537.291,1123.166l40.306,4.118c0,0-0.657,34.208,0.035,38.14c0,0,68.923,19.104,97.729,24.288
				c0,0,13.116-7.433,18.422-9.797c5.306-2.364,19.57-4.942,22.724-5.354c3.153-0.413,2.077,3.043-0.632,4.25
				c-2.709,1.207-9.717,4.51-11.705,8.552c0,0,5.69,0.623,8.7-0.719c3.01-1.341,7.157-4.181,7.223-5.653
				c0.066-1.473,0.751-5.022,1.738-4.83c0.252,0.049,0.588,1.215,0.926,2.433c0.321,1.157,0.661,2.346,0.943,3.514
				c0.506,2.097,1.088,5.162,1.314,6.538c0.516,3.142-1.406,11.808-1.676,14.885c-0.493,5.618-2.097,8.114-5.063,9.547
				c-4.783,1.666-9.843,2.729-17.324,3.502c-13.711,1.418-26.312-2.529-31.809-3.146c-5.497-0.617-93.261-9.321-93.261-9.321
				s-34.889-5.021-37.204-11.025C536.362,1187.08,537.291,1123.166,537.291,1123.166z"/>
			<path style="fill:#50BFA5;" d="M572.306,987.74c0,0-12.721,6.031-23.904,32.085c-10.626,24.757-13.749,148.313-13.749,148.313
				l42.161-7.027l21.425-57.608c15.27-34.479,11.327-74.625-10.921-105.072C581.384,990.308,575.916,985.402,572.306,987.74z"/>
		</g>
		<g>
			<path style="fill:#F47458;" d="M2650.602,1018.252l113.906-4.283l-140.446-57.451l120.317,16.765
				c-138.063-126.257-250.033-121.861-339.255-107.474l-21.053,106.652c77.218,82.471,155.559,100.084,342.53,63.815
				L2650.602,1018.252z"/>
			<path style="fill:#F7CC7F;" d="M2404.15,870.74l-18.967,96.084c52.75,43.273,117.258,62.53,237.588,39.188l-59.833-14.19
				l89.677-3.372l-110.571-45.229l83.639,3.393C2540.35,875.489,2466.863,865.563,2404.15,870.74z"/>
			<g>
				<g>
					<path style="fill:#878583;" d="M2427.179,847.425l-33.757,154.302c-0.755,3.45-4.164,5.635-7.613,4.88l-41.856-9.157
						l36.489-166.795l41.857,9.157C2425.748,840.565,2427.934,843.975,2427.179,847.425z"/>
					<g>
						<path style="fill:#31A388;" d="M2100.92,993.114c0,0,70.041,81.244,111.791,137.246
							c56.345,75.578,68.718,61.477,273.448,49.622c-62.55-157.851-209.07-128.41-225.198-183.703
							C2231.53,895.382,2100.92,993.114,2100.92,993.114z"/>
						<path style="fill:#31A388;" d="M2157.801,733.113c0,0,97.567-44.576,158.888-78.029
							c82.755-45.146,88.11-27.167,269.189,69.092c-122.748,117.313-243.592,29.38-281.334,72.888
							C2235.671,876.455,2157.801,733.113,2157.801,733.113z"/>
					</g>
					<g>
						<path style="fill:#31A388;" d="M2100.691,677.541c-161.55-35.343-326.209,26.466-400.623,60.829
							c-22.172,10.238-28.817,38.592-13.514,57.624c50.342,62.606,167.504,186.192,331.415,222.051
							c66.227,14.488,264.236,10.251,317.345-2.922c12.727-3.157,22.582-13.219,25.385-26.029l32.263-147.47
							c2.802-12.81-1.951-26.068-12.198-34.251C2338.008,773.228,2166.917,692.03,2100.691,677.541z"/>
					</g>
					<path style="fill:#96D9C9;" d="M2380.764,807.373c-42.756-34.145-213.847-115.343-280.072-129.832
						c-98.395-21.525-197.941-7.013-277.55,15.389c-21.729,26.267-37.31,57.013-44.8,91.251
						c-8.286,37.873-5.794,75.998,5.649,112.061c59.685,50.769,138.979,101.02,233.979,121.803
						c66.227,14.488,264.236,10.251,317.345-2.922c12.727-3.157,22.582-13.219,25.385-26.029l32.263-147.47
						C2395.764,828.813,2391.011,815.556,2380.764,807.373z"/>
					<g>
						
							<ellipse transform="matrix(0.9338 -0.3578 0.3578 0.9338 -163.6864 765.7647)" style="fill:#EBD6AC;" cx="1987.737" cy="825.266" rx="107.541" ry="107.54"/>
						<path style="fill:#0E2E35;" d="M2008.063,725.966c58.021,12.693,94.767,70.019,82.073,128.04
							c-12.693,58.021-70.019,94.766-128.04,82.073c-58.021-12.694-94.766-70.019-82.072-128.04S1950.042,713.273,2008.063,725.966z
							"/>
						<path style="fill:#1F4752;" d="M1964.692,931.706c-58.021-12.693-94.767-70.019-82.073-128.04
							c2.335-10.674,6.191-20.619,11.274-29.678c-6.378,10.194-11.153,21.63-13.87,34.05
							c-12.693,58.021,24.052,115.346,82.072,128.04c47.348,10.358,94.221-12.213,116.766-52.394
							C2055.449,921.111,2010.293,941.682,1964.692,931.706z"/>
						<path style="fill:#D1CFCB;" d="M2078.648,841.702c4.381,0.958,7.154,5.287,6.196,9.667c-0.958,4.38-5.286,7.155-9.667,6.196
							c-4.381-0.958-7.154-5.287-6.196-9.667C2069.939,843.518,2074.268,840.743,2078.648,841.702z"/>
						<path style="fill:#D1CFCB;" d="M1898.157,802.742c4.381,0.958,7.155,5.286,6.196,9.667c-0.958,4.381-5.286,7.154-9.666,6.196
							c-4.381-0.958-7.155-5.286-6.197-9.667C1889.449,804.558,1893.777,801.784,1898.157,802.742z"/>
						<path style="fill:#D1CFCB;" d="M1943.138,741.503c4.381,0.958,7.155,5.286,6.196,9.667c-0.958,4.38-5.286,7.154-9.667,6.196
							c-4.38-0.959-7.154-5.286-6.196-9.667C1934.43,743.318,1938.757,740.544,1943.138,741.503z"/>
						<path style="fill:#D1CFCB;" d="M2038.885,900.625c4.38,0.958,7.154,5.286,6.196,9.667c-0.958,4.381-5.286,7.155-9.667,6.196
							c-4.381-0.958-7.154-5.286-6.196-9.666C2030.176,902.44,2034.504,899.666,2038.885,900.625z"/>
						<path style="fill:#D1CFCB;" d="M2064.229,767.994c4.381,0.958,7.155,5.286,6.196,9.667c-0.958,4.381-5.286,7.155-9.667,6.196
							c-4.38-0.958-7.154-5.286-6.196-9.667C2055.521,769.81,2059.849,767.036,2064.229,767.994z"/>
						<path style="fill:#D1CFCB;" d="M1912.342,876.265c4.38,0.958,7.154,5.286,6.196,9.667c-0.958,4.381-5.286,7.155-9.667,6.196
							c-4.381-0.958-7.154-5.286-6.196-9.667C1903.633,878.081,1907.961,875.307,1912.342,876.265z"/>
						<path style="fill:#D1CFCB;" d="M2008.548,731.245c4.38,0.959,7.154,5.287,6.196,9.667c-0.959,4.381-5.286,7.155-9.667,6.196
							c-4.381-0.958-7.155-5.286-6.196-9.667C1999.839,733.062,2004.167,730.287,2008.548,731.245z"/>
						<path style="fill:#D1CFCB;" d="M1968.497,914.315c4.381,0.958,7.154,5.287,6.196,9.667c-0.958,4.38-5.286,7.155-9.667,6.197
							c-4.38-0.958-7.154-5.287-6.196-9.667C1959.788,916.131,1964.116,913.357,1968.497,914.315z"/>
						
							<ellipse transform="matrix(0.9826 -0.1859 0.1859 0.9826 -119.8869 383.5235)" style="fill:#A8C7F6;" cx="1985.08" cy="831.022" rx="78.897" ry="78.896"/>
						<path style="fill:#C1DAE3;" d="M1979.648,901.333c-42.566-9.313-69.524-51.369-60.212-93.935
							c4.363-19.944,15.915-36.462,31.34-47.428c-21.051,10.181-37.386,29.577-42.771,54.191
							c-9.313,42.566,17.646,84.622,60.212,93.935c22.622,4.949,45.1-0.346,62.596-12.784
							C2015.461,902.736,1997.601,905.26,1979.648,901.333z"/>
						<g>
							<path style="fill:#878583;" d="M2077.106,842.844c4.381,0.958,7.155,5.286,6.197,9.667c-0.959,4.381-5.287,7.155-9.667,6.196
								c-4.381-0.958-7.155-5.286-6.196-9.667C2068.398,844.66,2072.727,841.886,2077.106,842.844z"/>
							<path style="fill:#858585;" d="M2079.776,851.738c-0.532,2.429-2.939,3.972-5.368,3.441c-2.429-0.532-3.972-2.94-3.44-5.368
								c0.531-2.429,2.938-3.972,5.367-3.44C2078.764,846.902,2080.308,849.31,2079.776,851.738z"/>
							<path style="fill:#878583;" d="M1896.616,803.885c4.381,0.958,7.154,5.286,6.196,9.666c-0.958,4.38-5.286,7.155-9.667,6.196
								s-7.154-5.286-6.196-9.667C1887.907,805.7,1892.235,802.926,1896.616,803.885z"/>
							<path style="fill:#858585;" d="M1899.285,812.779c-0.531,2.428-2.939,3.972-5.368,3.44s-3.972-2.939-3.441-5.368
								c0.531-2.428,2.94-3.972,5.367-3.441C1898.272,807.942,1899.816,810.351,1899.285,812.779z"/>
							<path style="fill:#878583;" d="M1941.597,742.645c4.38,0.958,7.154,5.287,6.196,9.667c-0.958,4.381-5.286,7.155-9.667,6.197
								s-7.154-5.287-6.196-9.667C1932.888,744.461,1937.216,741.687,1941.597,742.645z"/>
							<path style="fill:#858585;" d="M1944.266,751.539c-0.531,2.429-2.939,3.972-5.368,3.441c-2.429-0.532-3.972-2.94-3.44-5.368
								s2.939-3.972,5.367-3.44C1943.253,746.703,1944.797,749.111,1944.266,751.539z"/>
							<path style="fill:#878583;" d="M2037.343,901.767c4.381,0.958,7.155,5.286,6.197,9.667c-0.959,4.381-5.287,7.154-9.667,6.196
								c-4.381-0.958-7.155-5.286-6.196-9.667C2028.635,903.583,2032.963,900.809,2037.343,901.767z"/>
							<path style="fill:#858585;" d="M2040.013,910.662c-0.531,2.428-2.939,3.972-5.367,3.44c-2.429-0.531-3.973-2.94-3.441-5.368
								c0.531-2.429,2.939-3.972,5.368-3.44C2039.001,905.825,2040.544,908.233,2040.013,910.662z"/>
							<path style="fill:#878583;" d="M2062.688,769.137c4.38,0.958,7.154,5.286,6.196,9.667c-0.959,4.38-5.286,7.154-9.667,6.196
								c-4.381-0.959-7.155-5.287-6.196-9.667C2053.979,770.952,2058.308,768.178,2062.688,769.137z"/>
							<path style="fill:#858585;" d="M2065.357,778.031c-0.531,2.429-2.938,3.972-5.367,3.44s-3.973-2.939-3.441-5.368
								c0.531-2.429,2.939-3.972,5.368-3.441C2064.346,773.194,2065.889,775.603,2065.357,778.031z"/>
							<path style="fill:#878583;" d="M1910.8,877.407c4.381,0.958,7.155,5.286,6.197,9.667c-0.959,4.38-5.287,7.154-9.667,6.196
								c-4.381-0.958-7.155-5.286-6.196-9.667C1902.092,879.223,1906.42,876.448,1910.8,877.407z"/>
							<path style="fill:#858585;" d="M1913.469,886.302c-0.531,2.429-2.938,3.972-5.367,3.44c-2.429-0.531-3.972-2.938-3.44-5.367
								s2.938-3.972,5.367-3.441C1912.457,881.466,1914.001,883.873,1913.469,886.302z"/>
							<path style="fill:#878583;" d="M2007.006,732.388c4.381,0.958,7.155,5.286,6.196,9.667c-0.958,4.38-5.286,7.154-9.667,6.196
								c-4.38-0.958-7.154-5.286-6.196-9.667C1998.298,734.204,2002.626,731.43,2007.006,732.388z"/>
							<path style="fill:#858585;" d="M2009.676,741.281c-0.531,2.429-2.939,3.974-5.368,3.443s-3.972-2.941-3.44-5.37
								c0.531-2.428,2.938-3.97,5.367-3.439C2008.663,736.447,2010.207,738.854,2009.676,741.281z"/>
							<path style="fill:#878583;" d="M1966.956,915.457c4.38,0.959,7.154,5.287,6.196,9.667c-0.959,4.381-5.287,7.155-9.667,6.196
								c-4.381-0.958-7.155-5.286-6.196-9.667C1958.247,917.273,1962.575,914.499,1966.956,915.457z"/>
							<path style="fill:#858585;" d="M1969.625,924.353c-0.532,2.428-2.939,3.972-5.368,3.441c-2.429-0.531-3.972-2.94-3.44-5.368
								c0.531-2.428,2.938-3.972,5.367-3.44C1968.612,919.517,1970.156,921.925,1969.625,924.353z"/>
						</g>
						<path style="fill:#4A4A4A;" d="M1998.268,783.558c31.707,16.058,44.394,54.779,28.335,86.486
							c-4.945,9.766-12.046,17.72-20.425,23.593c16.34-5.212,30.666-16.708,39.027-33.218c16.552-32.683,3.476-72.595-29.207-89.147
							c-26.741-13.543-58.314-7.242-77.979,13.396C1956.041,774.71,1978.515,773.554,1998.268,783.558z"/>
					</g>
				</g>
				<path style="fill:#31A388;" d="M2355.902,889.737c102.12,22.341,165.805,46.889,180.116,62.342
					c-20.248,8.313-87.573,3.778-189.693-18.563s-180.116-62.342-180.116-62.342S2253.782,867.396,2355.902,889.737z"/>
				<path style="fill:#292929;" d="M2057.856,1004.336c-170.693-37.342-292.054-169.008-344.136-235.767
					c-0.048-0.061-0.096-0.122-0.143-0.184c-4.803-6.229-14.632-1.79-13.414,6.091c0.943,6.1,3.389,12.058,7.472,17.292
					c48.534,62.211,161.626,184.906,320.688,219.705c63.351,13.858,228.911,7.36,283.772-5.701
					C2227.987,1013.729,2111.882,1016.156,2057.856,1004.336z"/>
			</g>
			<g>
				<path style="fill:#F79C8D;" d="M2280.918,593.431c0,0-18.113-59.931-22.879-72.871c-4.766-12.94-13.78-62.188-14.066-64.114
					c-0.286-1.926,18.065-20.284,15.171-21.683c-2.894-1.399-8.895,9.85-11.839,7.704c-2.944-2.145-6.148-33.086-8.318-32.061
					c-4.06,1.919,1.213,19.025-0.849,19.578c-2.062,0.555-3.797-18.381-7.548-18.656c-3.751-0.274,3.365,17.744,2.045,18.909
					c-1.32,1.165-9.038-16.033-11.711-13.312c-1.451,1.479,7.247,15.125,4.876,15.706c-2.371,0.581-10.707-8.823-12.213-6.967
					c-1.507,1.857,8.091,6.949,9.917,13.242c1.827,6.293,6.501,9.863,6.385,20.751s-5.131,49.282,1.83,70.508
					c6.961,21.226,22.211,68.169,22.211,68.169L2280.918,593.431z"/>
				<g>
					<path style="fill:#13375B;" d="M2292.923,551.836c7.309-10.475,14.704-20.955,28.402-24.072
						c11.086-2.522,21.2,1.553,28.663,10.224c21.146,24.569-5.495,40.714,15.42,83.107c6.499,13.173,15.354,24.598,17.843,38.913
						c3.483,20.037-7.392,26.914-23.651,32.588c-77.798,27.149-94.812-67.262-89.19-86.777
						C2274.592,591.301,2288.219,558.578,2292.923,551.836z"/>
					<path style="fill:#13375B;" d="M2292.923,551.836c7.309-10.475,14.704-20.955,28.402-24.072
						c11.086-2.522,21.2,1.553,28.663,10.224c21.146,24.569-5.495,40.714,15.42,83.107c6.499,13.173,15.354,24.598,17.843,38.913
						c3.483,20.037-7.392,26.914-23.651,32.588c-77.798,27.149-94.812-67.262-89.19-86.777
						C2274.592,591.301,2288.219,558.578,2292.923,551.836z"/>
					<path style="fill:#F7A491;" d="M2081.923,830.063c-8.759,13.432-14.726,26.91-15.359,28.56
						c-0.304,0.793-0.016,5.028-0.311,5.856c-14.475,12.768-31.225,12.589-45.171,10.554c8.495-5.302,20.189-9.528,21.156-11.584
						c1.541-3.273,9.124-17.687,15.854-38.49C2065.771,830.781,2072.251,828.917,2081.923,830.063z"/>
					<path style="fill:#13375B;" d="M2275.734,700.76l9.416,74.451c0,0-41.042-1.204-56.369-1.725
						c-15.328-0.521-98.451-14.938-100.857-13.933c-1.785,0.746-30.829,52.036-45.063,80.707
						c-9.034,0.011-23.289-5.495-30.546-9.917c13.735-42.473,44.095-107.882,50.637-114.294
						C2113.607,705.604,2275.734,700.76,2275.734,700.76z"/>
					<path style="fill:#F7A491;" d="M2137.437,873.942c-6.086,14.835-9.422,29.193-9.734,30.932
						c-0.15,0.836,0.926,4.942,0.792,5.811c-11.826,15.254-28.313,18.218-42.393,18.832c7.35-6.799,18.046-13.142,18.61-15.343
						c0.899-3.504,5.647-19.083,8.36-40.778C2121.705,877.673,2127.722,874.628,2137.437,873.942z"/>
					<path style="fill:#355389;" d="M2303.585,710.611l5.959,18.331c9.073,27.909-8.994,57.31-37.99,61.832
						c-0.157,0.024-0.311,0.048-0.462,0.072c-15.154,2.359-99.506,3.775-101.681,5.214c-1.615,1.067-20.532,56.891-29.142,87.721
						c-8.872,1.704-23.906-1.034-31.863-4.017c5.533-44.294,23.098-114.234,28.322-121.759
						C2145.238,745.75,2303.585,710.611,2303.585,710.611z"/>
					<path style="fill:#F47458;" d="M2126.367,905.086c2.651-1.892,7.651,12.803,9.004,16.001c1.522,3.598,0.382,5.809,0.012,6.238
						c-0.977,1.133-47.64,16.41-58.101,15.937c-0.988-0.045-2.506-1.007-2.842-1.466c-3.177-4.351,20.595-26.137,29.479-27.74
						C2109.661,913.02,2114.438,913.594,2126.367,905.086z"/>
					<path style="fill:#F47458;" d="M2248.114,659.112c1.437-10.736,6.189-39.513,7.43-42.909
						c-0.794-11.651-8.88-30.436-10.315-35.562c0,0,19.7-14.432,31.374-11.72c0,0,9.014,18.451,17.202,25.294
						c0.143-0.005,2.964,2.113,4.345,2.405c8.938,1.889,40.33,7.766,45.771,10.776l-13.839,47.467
						c-2.282,2.396-16.438,57.359-20.887,61.165c-4.447,3.805-59.187,13.583-66.334,6.409
						C2242.576,722.154,2245.212,680.815,2248.114,659.112z"/>
					<path style="fill:#F7A491;" d="M2322.375,583.325c0,0-6.889,16.01-7.685,22.746c-0.796,6.735-8.557,27.308-22.53,24.324
						c-13.973-2.984,3.261-27.6,5.989-33.774c2.729-6.175,7.416-26.109,7.416-26.109L2322.375,583.325z"/>
					<path style="fill:#F47458;" d="M2303.082,580.484c1.414-5.425,2.483-9.973,2.483-9.973l16.81,12.813
						c0,0-1.408,3.273-3.025,7.483C2310.797,590.663,2305.522,586.332,2303.082,580.484z"/>
					<path style="fill:#F7A491;" d="M2339.31,538.684c0,0,6.338,5.58,7.077,14.829s-7.157,30.971-26.97,32.295
						c-19.813,1.324-24.007-18.162-17.139-31.176C2309.146,541.616,2321.331,525.899,2339.31,538.684z"/>
					<path style="fill:#F7A491;" d="M2301.123,548.752c-0.449,3.801,0.981,7.094,3.195,7.355c2.214,0.262,4.373-2.607,4.822-6.408
						c0.449-3.801-0.982-7.094-3.196-7.355C2303.73,542.082,2301.571,544.951,2301.123,548.752z"/>
					<path style="fill:#F47458;" d="M2065.143,858.802c2.959-1.361,5.117,14.011,5.847,17.405c0.82,3.819-0.715,5.777-1.158,6.13
						c-1.172,0.93-49.871,7.193-60.058,4.767c-0.962-0.229-2.273-1.459-2.517-1.972c-2.306-4.869,25.128-21.815,34.154-21.724
						C2047.246,863.465,2051.831,864.925,2065.143,858.802z"/>
					<path style="fill:#13375B;" d="M2337.372,537.076c0,0-2.082,25.702,5.003,31.973c7.086,6.271,1.284,16.605,1.284,16.605
						s12.946-24.112,8.371-33.768C2347.455,542.232,2337.372,537.076,2337.372,537.076z"/>
					<path style="fill:#F7A491;" d="M2336.812,571.587c-2.9,2.773-3.731,6.611-1.856,8.571c1.874,1.961,5.745,1.301,8.646-1.473
						c2.9-2.773,3.731-6.611,1.856-8.571C2343.582,568.153,2339.712,568.813,2336.812,571.587z"/>
					<path style="fill:#FFFFFF;" d="M2309.361,567.037l12.408,6.178c0,0-2.669,4.642-8.206,2.085
						C2306.813,572.183,2309.361,567.037,2309.361,567.037z"/>
					<path style="fill:#F7A491;" d="M2350.759,701.09c1.838-24.254,3.946-57.471,3.946-57.471l-27.487,1.557
						c0,0,0.286,30.903-0.599,55.282L2350.759,701.09z"/>
					<path style="fill:#F7A491;" d="M2388.393,803.254c-0.104-0.647-0.623-0.773-1.153-0.906
						c-5.149-1.293-10.277-2.658-15.249-4.551c-0.829-0.316-1.632-0.694-2.352-1.181c-1.305-0.883-2.72-1.179-4.25-1.095
						c-0.829,0.046-1.633-0.088-2.438-0.268c-2.604-0.581-9.485-4.738-13.159-6.241c-0.839-0.344-1.387-1.155-1.416-2.061
						c-0.507-15.684-1.272-50.792,0.081-61.985c1.731-14.313,5.878-79.65,5.878-79.65l-27.487,1.557c0,0,0.454,48.997-1.548,72.271
						c-1.547,17.971,7.805,58.867,10.945,70.726c0.939,8.521,6.891,10.053,8.247,10.528c0.776,0.272,1.423,0.824,1.813,1.548
						c0.705,1.309,1.578,2.504,2.646,3.558c0.792,0.781,1.335,1.691,1.747,2.707c0.749,1.848,1.365,3.742,1.971,5.64
						c0.401,1.258,1.001,1.759,2.017,1.706c1.09-0.058,1.746-0.709,2-1.967c0.376-1.857,0.152-3.66-0.432-5.442
						c-0.548-1.669-0.295-2.516,1.016-3.654c0.754-0.655,1.52-1.283,2.42-1.737c0.916-0.462,1.838-0.764,2.86-0.385
						c1.76,0.872,3.556,1.66,5.419,2.289l1.498,0.662c0.053,0.021,0.815,0.369,0.815,0.369c0.124,0.063,2.814,0.968,3.758,1.176
						c0.759,0.167,1.976,0.486,3.009,0.765c0.936,0.253,3.043,0.196,3.111,0.209c0.925,0.181,1.812,0.026,2.633-0.44
						c0.336-0.19,0.668-0.415,0.619-0.875c-0.045-0.423-0.317-0.657-0.703-0.817c-0.598-0.248-3.729-1.343-3.664-1.472
						c0.956,0.209,3.963,0.793,4.924,0.977c1.295,0.247,2.511,0.03,3.607-0.728C2388.008,804.188,2388.495,803.904,2388.393,803.254
						z"/>
					<path style="fill:#F47458;" d="M2344.259,607.363c13.326,0.474,11.354,60.131,11.354,60.131s-30.216,1.72-36.6-4.045
						c0,0-0.251-38.519-3.499-37.886L2344.259,607.363z"/>
				</g>
			</g>
		</g>
	</g>
</g>
</svg>
